<svg width="1440" height="96" viewBox="0 0 1440 96" fill="none" xmlns="http://www.w3.org/2000/svg">
<rect width="1440" height="96" fill="white"/>
<path d="M510.161 48.2275H506.83V46.4785H510.161C510.741 46.4785 511.21 46.3848 511.567 46.1973C511.925 46.0098 512.186 45.752 512.35 45.4238C512.52 45.0898 512.604 44.709 512.604 44.2812C512.604 43.877 512.52 43.499 512.35 43.1475C512.186 42.79 511.925 42.5029 511.567 42.2861C511.21 42.0693 510.741 41.9609 510.161 41.9609H507.507V53H505.301V40.2031H510.161C511.151 40.2031 511.992 40.3789 512.684 40.7305C513.381 41.0762 513.911 41.5566 514.274 42.1719C514.638 42.7812 514.819 43.4785 514.819 44.2637C514.819 45.0898 514.638 45.7988 514.274 46.3906C513.911 46.9824 513.381 47.4365 512.684 47.7529C511.992 48.0693 511.151 48.2275 510.161 48.2275ZM518.713 45.3008V53H516.595V43.4902H518.616L518.713 45.3008ZM521.622 43.4287L521.604 45.3975C521.476 45.374 521.335 45.3564 521.183 45.3447C521.036 45.333 520.89 45.3271 520.743 45.3271C520.38 45.3271 520.061 45.3799 519.785 45.4854C519.51 45.585 519.278 45.7314 519.091 45.9248C518.909 46.1123 518.769 46.3408 518.669 46.6104C518.569 46.8799 518.511 47.1816 518.493 47.5156L518.01 47.5508C518.01 46.9531 518.068 46.3994 518.186 45.8896C518.303 45.3799 518.479 44.9316 518.713 44.5449C518.953 44.1582 519.252 43.8564 519.609 43.6396C519.973 43.4229 520.392 43.3145 520.866 43.3145C520.995 43.3145 521.133 43.3262 521.279 43.3496C521.432 43.373 521.546 43.3994 521.622 43.4287ZM522.316 48.3506V48.1484C522.316 47.4629 522.416 46.8271 522.615 46.2412C522.814 45.6494 523.102 45.1367 523.477 44.7031C523.857 44.2637 524.32 43.9238 524.865 43.6836C525.416 43.4375 526.037 43.3145 526.729 43.3145C527.426 43.3145 528.047 43.4375 528.592 43.6836C529.143 43.9238 529.608 44.2637 529.989 44.7031C530.37 45.1367 530.66 45.6494 530.859 46.2412C531.059 46.8271 531.158 47.4629 531.158 48.1484V48.3506C531.158 49.0361 531.059 49.6719 530.859 50.2578C530.66 50.8438 530.37 51.3564 529.989 51.7959C529.608 52.2295 529.146 52.5693 528.601 52.8154C528.056 53.0557 527.438 53.1758 526.746 53.1758C526.049 53.1758 525.425 53.0557 524.874 52.8154C524.329 52.5693 523.866 52.2295 523.485 51.7959C523.104 51.3564 522.814 50.8438 522.615 50.2578C522.416 49.6719 522.316 49.0361 522.316 48.3506ZM524.435 48.1484V48.3506C524.435 48.7783 524.479 49.1826 524.566 49.5635C524.654 49.9443 524.792 50.2783 524.979 50.5654C525.167 50.8525 525.407 51.0781 525.7 51.2422C525.993 51.4062 526.342 51.4883 526.746 51.4883C527.139 51.4883 527.479 51.4062 527.766 51.2422C528.059 51.0781 528.299 50.8525 528.486 50.5654C528.674 50.2783 528.812 49.9443 528.899 49.5635C528.993 49.1826 529.04 48.7783 529.04 48.3506V48.1484C529.04 47.7266 528.993 47.3281 528.899 46.9531C528.812 46.5723 528.671 46.2354 528.478 45.9424C528.29 45.6494 528.05 45.4209 527.757 45.2568C527.47 45.0869 527.127 45.002 526.729 45.002C526.33 45.002 525.984 45.0869 525.691 45.2568C525.404 45.4209 525.167 45.6494 524.979 45.9424C524.792 46.2354 524.654 46.5723 524.566 46.9531C524.479 47.3281 524.435 47.7266 524.435 48.1484ZM538.734 51.0312V39.5H540.861V53H538.937L538.734 51.0312ZM532.547 48.3506V48.166C532.547 47.4453 532.632 46.7891 532.802 46.1973C532.972 45.5996 533.218 45.0869 533.54 44.6592C533.862 44.2256 534.255 43.8945 534.718 43.666C535.181 43.4316 535.702 43.3145 536.282 43.3145C536.856 43.3145 537.36 43.4258 537.794 43.6484C538.228 43.8711 538.597 44.1904 538.901 44.6064C539.206 45.0166 539.449 45.5088 539.631 46.083C539.812 46.6514 539.941 47.2842 540.018 47.9814V48.5703C539.941 49.25 539.812 49.8711 539.631 50.4336C539.449 50.9961 539.206 51.4824 538.901 51.8926C538.597 52.3027 538.225 52.6191 537.785 52.8418C537.352 53.0645 536.845 53.1758 536.265 53.1758C535.69 53.1758 535.172 53.0557 534.709 52.8154C534.252 52.5752 533.862 52.2383 533.54 51.8047C533.218 51.3711 532.972 50.8613 532.802 50.2754C532.632 49.6836 532.547 49.042 532.547 48.3506ZM534.665 48.166V48.3506C534.665 48.7842 534.703 49.1885 534.779 49.5635C534.861 49.9385 534.987 50.2695 535.157 50.5566C535.327 50.8379 535.547 51.0605 535.816 51.2246C536.092 51.3828 536.42 51.4619 536.801 51.4619C537.281 51.4619 537.677 51.3564 537.987 51.1455C538.298 50.9346 538.541 50.6504 538.717 50.293C538.898 49.9297 539.021 49.5254 539.086 49.0801V47.4893C539.051 47.1436 538.978 46.8213 538.866 46.5225C538.761 46.2236 538.617 45.9629 538.436 45.7402C538.254 45.5117 538.028 45.3359 537.759 45.2129C537.495 45.084 537.182 45.0195 536.818 45.0195C536.432 45.0195 536.104 45.1016 535.834 45.2656C535.564 45.4297 535.342 45.6553 535.166 45.9424C534.996 46.2295 534.87 46.5635 534.788 46.9443C534.706 47.3252 534.665 47.7324 534.665 48.166ZM548.798 50.7588V43.4902H550.925V53H548.921L548.798 50.7588ZM549.097 48.7812L549.809 48.7637C549.809 49.4023 549.738 49.9912 549.598 50.5303C549.457 51.0635 549.24 51.5293 548.947 51.9277C548.654 52.3203 548.279 52.6279 547.822 52.8506C547.365 53.0674 546.817 53.1758 546.179 53.1758C545.716 53.1758 545.291 53.1084 544.904 52.9736C544.518 52.8389 544.184 52.6309 543.902 52.3496C543.627 52.0684 543.413 51.7021 543.261 51.251C543.108 50.7998 543.032 50.2607 543.032 49.6338V43.4902H545.15V49.6514C545.15 49.9971 545.191 50.2871 545.273 50.5215C545.355 50.75 545.467 50.9346 545.607 51.0752C545.748 51.2158 545.912 51.3154 546.1 51.374C546.287 51.4326 546.486 51.4619 546.697 51.4619C547.301 51.4619 547.775 51.3447 548.121 51.1104C548.473 50.8701 548.722 50.5479 548.868 50.1436C549.021 49.7393 549.097 49.2852 549.097 48.7812ZM556.98 51.4883C557.326 51.4883 557.637 51.4209 557.912 51.2861C558.193 51.1455 558.419 50.9521 558.589 50.7061C558.765 50.46 558.861 50.1758 558.879 49.8535H560.874C560.862 50.4688 560.681 51.0283 560.329 51.5322C559.978 52.0361 559.512 52.4375 558.932 52.7363C558.352 53.0293 557.71 53.1758 557.007 53.1758C556.28 53.1758 555.647 53.0527 555.108 52.8066C554.569 52.5547 554.121 52.209 553.764 51.7695C553.406 51.3301 553.137 50.8232 552.955 50.249C552.779 49.6748 552.691 49.0596 552.691 48.4033V48.0957C552.691 47.4395 552.779 46.8242 552.955 46.25C553.137 45.6699 553.406 45.1602 553.764 44.7207C554.121 44.2812 554.569 43.9385 555.108 43.6924C555.647 43.4404 556.277 43.3145 556.998 43.3145C557.76 43.3145 558.428 43.4668 559.002 43.7715C559.576 44.0703 560.027 44.4893 560.355 45.0283C560.689 45.5615 560.862 46.1826 560.874 46.8916H558.879C558.861 46.54 558.773 46.2236 558.615 45.9424C558.463 45.6553 558.246 45.4268 557.965 45.2568C557.689 45.0869 557.358 45.002 556.972 45.002C556.544 45.002 556.189 45.0898 555.908 45.2656C555.627 45.4355 555.407 45.6699 555.249 45.9688C555.091 46.2617 554.977 46.5928 554.906 46.9619C554.842 47.3252 554.81 47.7031 554.81 48.0957V48.4033C554.81 48.7959 554.842 49.1768 554.906 49.5459C554.971 49.915 555.082 50.2461 555.24 50.5391C555.404 50.8262 555.627 51.0576 555.908 51.2334C556.189 51.4033 556.547 51.4883 556.98 51.4883ZM566.859 43.4902V45.0371H561.498V43.4902H566.859ZM563.045 41.1611H565.163V50.3721C565.163 50.665 565.204 50.8906 565.286 51.0488C565.374 51.2012 565.494 51.3037 565.646 51.3564C565.799 51.4092 565.978 51.4355 566.183 51.4355C566.329 51.4355 566.47 51.4268 566.604 51.4092C566.739 51.3916 566.848 51.374 566.93 51.3564L566.938 52.9736C566.763 53.0264 566.558 53.0732 566.323 53.1143C566.095 53.1553 565.831 53.1758 565.532 53.1758C565.046 53.1758 564.615 53.0908 564.24 52.9209C563.865 52.7451 563.572 52.4609 563.361 52.0684C563.15 51.6758 563.045 51.1543 563.045 50.5039V41.1611ZM573.829 50.4248C573.829 50.2139 573.776 50.0234 573.671 49.8535C573.565 49.6777 573.363 49.5195 573.064 49.3789C572.771 49.2383 572.338 49.1094 571.764 48.9922C571.26 48.8809 570.797 48.749 570.375 48.5967C569.959 48.4385 569.602 48.248 569.303 48.0254C569.004 47.8027 568.772 47.5391 568.608 47.2344C568.444 46.9297 568.362 46.5781 568.362 46.1797C568.362 45.793 568.447 45.4268 568.617 45.0811C568.787 44.7354 569.03 44.4307 569.347 44.167C569.663 43.9033 570.047 43.6953 570.498 43.543C570.955 43.3906 571.465 43.3145 572.027 43.3145C572.824 43.3145 573.507 43.4492 574.075 43.7188C574.649 43.9824 575.089 44.3428 575.394 44.7998C575.698 45.251 575.851 45.7607 575.851 46.3291H573.732C573.732 46.0771 573.668 45.8428 573.539 45.626C573.416 45.4033 573.229 45.2246 572.977 45.0898C572.725 44.9492 572.408 44.8789 572.027 44.8789C571.664 44.8789 571.362 44.9375 571.122 45.0547C570.888 45.166 570.712 45.3125 570.595 45.4941C570.483 45.6758 570.428 45.875 570.428 46.0918C570.428 46.25 570.457 46.3936 570.516 46.5225C570.58 46.6455 570.686 46.7598 570.832 46.8652C570.979 46.9648 571.178 47.0586 571.43 47.1465C571.688 47.2344 572.01 47.3193 572.396 47.4014C573.123 47.5537 573.747 47.75 574.269 47.9902C574.796 48.2246 575.2 48.5293 575.481 48.9043C575.763 49.2734 575.903 49.7422 575.903 50.3105C575.903 50.7324 575.812 51.1191 575.631 51.4707C575.455 51.8164 575.197 52.1182 574.857 52.376C574.518 52.6279 574.11 52.8242 573.636 52.9648C573.167 53.1055 572.64 53.1758 572.054 53.1758C571.192 53.1758 570.463 53.0234 569.865 52.7188C569.268 52.4082 568.813 52.0127 568.503 51.5322C568.198 51.0459 568.046 50.542 568.046 50.0205H570.094C570.117 50.4131 570.226 50.7266 570.419 50.9609C570.618 51.1895 570.864 51.3564 571.157 51.4619C571.456 51.5615 571.764 51.6113 572.08 51.6113C572.461 51.6113 572.78 51.5615 573.038 51.4619C573.296 51.3564 573.492 51.2158 573.627 51.04C573.762 50.8584 573.829 50.6533 573.829 50.4248Z" fill="#121D2D"/>
<path d="M617.033 49.7041C617.033 49.4404 616.992 49.2061 616.91 49.001C616.834 48.7959 616.696 48.6084 616.497 48.4385C616.298 48.2686 616.017 48.1045 615.653 47.9463C615.296 47.7822 614.839 47.6152 614.282 47.4453C613.673 47.2578 613.11 47.0498 612.595 46.8213C612.085 46.5869 611.64 46.3174 611.259 46.0127C610.878 45.7021 610.582 45.3477 610.371 44.9492C610.16 44.5449 610.055 44.0791 610.055 43.5518C610.055 43.0303 610.163 42.5557 610.38 42.1279C610.603 41.7002 610.916 41.3311 611.32 41.0205C611.73 40.7041 612.214 40.4609 612.771 40.291C613.327 40.1152 613.942 40.0273 614.616 40.0273C615.565 40.0273 616.383 40.2031 617.068 40.5547C617.76 40.9062 618.29 41.3779 618.659 41.9697C619.034 42.5615 619.222 43.2148 619.222 43.9297H617.033C617.033 43.5078 616.942 43.1357 616.761 42.8135C616.585 42.4854 616.315 42.2275 615.952 42.04C615.595 41.8525 615.141 41.7588 614.59 41.7588C614.068 41.7588 613.635 41.8379 613.289 41.9961C612.943 42.1543 612.686 42.3682 612.516 42.6377C612.346 42.9072 612.261 43.2119 612.261 43.5518C612.261 43.792 612.316 44.0117 612.428 44.2109C612.539 44.4043 612.709 44.5859 612.938 44.7559C613.166 44.9199 613.453 45.0752 613.799 45.2217C614.145 45.3682 614.552 45.5088 615.021 45.6436C615.729 45.8545 616.348 46.0889 616.875 46.3467C617.402 46.5986 617.842 46.8857 618.193 47.208C618.545 47.5303 618.809 47.8965 618.984 48.3066C619.16 48.7109 619.248 49.1709 619.248 49.6865C619.248 50.2256 619.14 50.7119 618.923 51.1455C618.706 51.5732 618.396 51.9395 617.991 52.2441C617.593 52.543 617.112 52.7744 616.55 52.9385C615.993 53.0967 615.372 53.1758 614.687 53.1758C614.071 53.1758 613.465 53.0938 612.867 52.9297C612.275 52.7656 611.736 52.5166 611.25 52.1826C610.764 51.8428 610.377 51.4209 610.09 50.917C609.803 50.4072 609.659 49.8125 609.659 49.1328H611.865C611.865 49.5488 611.936 49.9033 612.076 50.1963C612.223 50.4893 612.425 50.7295 612.683 50.917C612.94 51.0986 613.239 51.2334 613.579 51.3213C613.925 51.4092 614.294 51.4531 614.687 51.4531C615.202 51.4531 615.633 51.3799 615.979 51.2334C616.33 51.0869 616.594 50.8818 616.77 50.6182C616.945 50.3545 617.033 50.0498 617.033 49.7041ZM620.584 48.3506V48.1484C620.584 47.4629 620.684 46.8271 620.883 46.2412C621.082 45.6494 621.369 45.1367 621.744 44.7031C622.125 44.2637 622.588 43.9238 623.133 43.6836C623.684 43.4375 624.305 43.3145 624.996 43.3145C625.693 43.3145 626.314 43.4375 626.859 43.6836C627.41 43.9238 627.876 44.2637 628.257 44.7031C628.638 45.1367 628.928 45.6494 629.127 46.2412C629.326 46.8271 629.426 47.4629 629.426 48.1484V48.3506C629.426 49.0361 629.326 49.6719 629.127 50.2578C628.928 50.8438 628.638 51.3564 628.257 51.7959C627.876 52.2295 627.413 52.5693 626.868 52.8154C626.323 53.0557 625.705 53.1758 625.014 53.1758C624.316 53.1758 623.692 53.0557 623.142 52.8154C622.597 52.5693 622.134 52.2295 621.753 51.7959C621.372 51.3564 621.082 50.8438 620.883 50.2578C620.684 49.6719 620.584 49.0361 620.584 48.3506ZM622.702 48.1484V48.3506C622.702 48.7783 622.746 49.1826 622.834 49.5635C622.922 49.9443 623.06 50.2783 623.247 50.5654C623.435 50.8525 623.675 51.0781 623.968 51.2422C624.261 51.4062 624.609 51.4883 625.014 51.4883C625.406 51.4883 625.746 51.4062 626.033 51.2422C626.326 51.0781 626.566 50.8525 626.754 50.5654C626.941 50.2783 627.079 49.9443 627.167 49.5635C627.261 49.1826 627.308 48.7783 627.308 48.3506V48.1484C627.308 47.7266 627.261 47.3281 627.167 46.9531C627.079 46.5723 626.938 46.2354 626.745 45.9424C626.558 45.6494 626.317 45.4209 626.024 45.2568C625.737 45.0869 625.395 45.002 624.996 45.002C624.598 45.002 624.252 45.0869 623.959 45.2568C623.672 45.4209 623.435 45.6494 623.247 45.9424C623.06 46.2354 622.922 46.5723 622.834 46.9531C622.746 47.3281 622.702 47.7266 622.702 48.1484ZM633.469 39.5V53H631.342V39.5H633.469ZM641.511 50.7588V43.4902H643.638V53H641.634L641.511 50.7588ZM641.81 48.7812L642.521 48.7637C642.521 49.4023 642.451 49.9912 642.311 50.5303C642.17 51.0635 641.953 51.5293 641.66 51.9277C641.367 52.3203 640.992 52.6279 640.535 52.8506C640.078 53.0674 639.53 53.1758 638.892 53.1758C638.429 53.1758 638.004 53.1084 637.617 52.9736C637.23 52.8389 636.896 52.6309 636.615 52.3496C636.34 52.0684 636.126 51.7021 635.974 51.251C635.821 50.7998 635.745 50.2607 635.745 49.6338V43.4902H637.863V49.6514C637.863 49.9971 637.904 50.2871 637.986 50.5215C638.068 50.75 638.18 50.9346 638.32 51.0752C638.461 51.2158 638.625 51.3154 638.812 51.374C639 51.4326 639.199 51.4619 639.41 51.4619C640.014 51.4619 640.488 51.3447 640.834 51.1104C641.186 50.8701 641.435 50.5479 641.581 50.1436C641.733 49.7393 641.81 49.2852 641.81 48.7812ZM650.168 43.4902V45.0371H644.807V43.4902H650.168ZM646.354 41.1611H648.472V50.3721C648.472 50.665 648.513 50.8906 648.595 51.0488C648.683 51.2012 648.803 51.3037 648.955 51.3564C649.107 51.4092 649.286 51.4355 649.491 51.4355C649.638 51.4355 649.778 51.4268 649.913 51.4092C650.048 51.3916 650.156 51.374 650.238 51.3564L650.247 52.9736C650.071 53.0264 649.866 53.0732 649.632 53.1143C649.403 53.1553 649.14 53.1758 648.841 53.1758C648.354 53.1758 647.924 53.0908 647.549 52.9209C647.174 52.7451 646.881 52.4609 646.67 52.0684C646.459 51.6758 646.354 51.1543 646.354 50.5039V41.1611ZM654.07 43.4902V53H651.943V43.4902H654.07ZM651.803 40.9941C651.803 40.6719 651.908 40.4053 652.119 40.1943C652.336 39.9775 652.635 39.8691 653.016 39.8691C653.391 39.8691 653.687 39.9775 653.903 40.1943C654.12 40.4053 654.229 40.6719 654.229 40.9941C654.229 41.3105 654.12 41.5742 653.903 41.7852C653.687 41.9961 653.391 42.1016 653.016 42.1016C652.635 42.1016 652.336 41.9961 652.119 41.7852C651.908 41.5742 651.803 41.3105 651.803 40.9941ZM655.986 48.3506V48.1484C655.986 47.4629 656.086 46.8271 656.285 46.2412C656.484 45.6494 656.771 45.1367 657.146 44.7031C657.527 44.2637 657.99 43.9238 658.535 43.6836C659.086 43.4375 659.707 43.3145 660.398 43.3145C661.096 43.3145 661.717 43.4375 662.262 43.6836C662.812 43.9238 663.278 44.2637 663.659 44.7031C664.04 45.1367 664.33 45.6494 664.529 46.2412C664.729 46.8271 664.828 47.4629 664.828 48.1484V48.3506C664.828 49.0361 664.729 49.6719 664.529 50.2578C664.33 50.8438 664.04 51.3564 663.659 51.7959C663.278 52.2295 662.815 52.5693 662.271 52.8154C661.726 53.0557 661.107 53.1758 660.416 53.1758C659.719 53.1758 659.095 53.0557 658.544 52.8154C657.999 52.5693 657.536 52.2295 657.155 51.7959C656.774 51.3564 656.484 50.8438 656.285 50.2578C656.086 49.6719 655.986 49.0361 655.986 48.3506ZM658.104 48.1484V48.3506C658.104 48.7783 658.148 49.1826 658.236 49.5635C658.324 49.9443 658.462 50.2783 658.649 50.5654C658.837 50.8525 659.077 51.0781 659.37 51.2422C659.663 51.4062 660.012 51.4883 660.416 51.4883C660.809 51.4883 661.148 51.4062 661.436 51.2422C661.729 51.0781 661.969 50.8525 662.156 50.5654C662.344 50.2783 662.481 49.9443 662.569 49.5635C662.663 49.1826 662.71 48.7783 662.71 48.3506V48.1484C662.71 47.7266 662.663 47.3281 662.569 46.9531C662.481 46.5723 662.341 46.2354 662.147 45.9424C661.96 45.6494 661.72 45.4209 661.427 45.2568C661.14 45.0869 660.797 45.002 660.398 45.002C660 45.002 659.654 45.0869 659.361 45.2568C659.074 45.4209 658.837 45.6494 658.649 45.9424C658.462 46.2354 658.324 46.5723 658.236 46.9531C658.148 47.3281 658.104 47.7266 658.104 48.1484ZM668.704 45.5205V53H666.586V43.4902H668.581L668.704 45.5205ZM668.326 47.8936L667.641 47.8848C667.646 47.2109 667.74 46.5928 667.922 46.0303C668.109 45.4678 668.367 44.9844 668.695 44.5801C669.029 44.1758 669.428 43.8652 669.891 43.6484C670.354 43.4258 670.869 43.3145 671.438 43.3145C671.895 43.3145 672.308 43.3789 672.677 43.5078C673.052 43.6309 673.371 43.833 673.635 44.1143C673.904 44.3955 674.109 44.7617 674.25 45.2129C674.391 45.6582 674.461 46.2061 674.461 46.8564V53H672.334V46.8477C672.334 46.3906 672.267 46.0303 672.132 45.7666C672.003 45.4971 671.812 45.3066 671.561 45.1953C671.314 45.0781 671.007 45.0195 670.638 45.0195C670.274 45.0195 669.949 45.0957 669.662 45.248C669.375 45.4004 669.132 45.6084 668.933 45.8721C668.739 46.1357 668.59 46.4404 668.484 46.7861C668.379 47.1318 668.326 47.501 668.326 47.8936ZM681.958 50.4248C681.958 50.2139 681.905 50.0234 681.8 49.8535C681.694 49.6777 681.492 49.5195 681.193 49.3789C680.9 49.2383 680.467 49.1094 679.893 48.9922C679.389 48.8809 678.926 48.749 678.504 48.5967C678.088 48.4385 677.73 48.248 677.432 48.0254C677.133 47.8027 676.901 47.5391 676.737 47.2344C676.573 46.9297 676.491 46.5781 676.491 46.1797C676.491 45.793 676.576 45.4268 676.746 45.0811C676.916 44.7354 677.159 44.4307 677.476 44.167C677.792 43.9033 678.176 43.6953 678.627 43.543C679.084 43.3906 679.594 43.3145 680.156 43.3145C680.953 43.3145 681.636 43.4492 682.204 43.7188C682.778 43.9824 683.218 44.3428 683.522 44.7998C683.827 45.251 683.979 45.7607 683.979 46.3291H681.861C681.861 46.0771 681.797 45.8428 681.668 45.626C681.545 45.4033 681.357 45.2246 681.105 45.0898C680.854 44.9492 680.537 44.8789 680.156 44.8789C679.793 44.8789 679.491 44.9375 679.251 45.0547C679.017 45.166 678.841 45.3125 678.724 45.4941C678.612 45.6758 678.557 45.875 678.557 46.0918C678.557 46.25 678.586 46.3936 678.645 46.5225C678.709 46.6455 678.814 46.7598 678.961 46.8652C679.107 46.9648 679.307 47.0586 679.559 47.1465C679.816 47.2344 680.139 47.3193 680.525 47.4014C681.252 47.5537 681.876 47.75 682.397 47.9902C682.925 48.2246 683.329 48.5293 683.61 48.9043C683.892 49.2734 684.032 49.7422 684.032 50.3105C684.032 50.7324 683.941 51.1191 683.76 51.4707C683.584 51.8164 683.326 52.1182 682.986 52.376C682.646 52.6279 682.239 52.8242 681.765 52.9648C681.296 53.1055 680.769 53.1758 680.183 53.1758C679.321 53.1758 678.592 53.0234 677.994 52.7188C677.396 52.4082 676.942 52.0127 676.632 51.5322C676.327 51.0459 676.175 50.542 676.175 50.0205H678.223C678.246 50.4131 678.354 50.7266 678.548 50.9609C678.747 51.1895 678.993 51.3564 679.286 51.4619C679.585 51.5615 679.893 51.6113 680.209 51.6113C680.59 51.6113 680.909 51.5615 681.167 51.4619C681.425 51.3564 681.621 51.2158 681.756 51.04C681.891 50.8584 681.958 50.6533 681.958 50.4248Z" fill="#121E2D"/>
<path d="M726.756 45.5469V47.2959H719.962V45.5469H726.756ZM720.507 40.2031V53H718.301V40.2031H720.507ZM728.452 40.2031V53H726.255V40.2031H728.452ZM735.062 53.1758C734.358 53.1758 733.723 53.0615 733.154 52.833C732.592 52.5986 732.111 52.2734 731.713 51.8574C731.32 51.4414 731.019 50.9521 730.808 50.3896C730.597 49.8271 730.491 49.2207 730.491 48.5703V48.2188C730.491 47.4746 730.6 46.8008 730.816 46.1973C731.033 45.5938 731.335 45.0781 731.722 44.6504C732.108 44.2168 732.565 43.8857 733.093 43.6572C733.62 43.4287 734.191 43.3145 734.807 43.3145C735.486 43.3145 736.081 43.4287 736.591 43.6572C737.101 43.8857 737.522 44.208 737.856 44.624C738.196 45.0342 738.448 45.5234 738.612 46.0918C738.782 46.6602 738.867 47.2871 738.867 47.9727V48.8779H731.52V47.3574H736.775V47.1904C736.764 46.8096 736.688 46.4521 736.547 46.1182C736.412 45.7842 736.204 45.5146 735.923 45.3096C735.642 45.1045 735.267 45.002 734.798 45.002C734.446 45.002 734.133 45.0781 733.857 45.2305C733.588 45.377 733.362 45.5908 733.181 45.8721C732.999 46.1533 732.858 46.4932 732.759 46.8916C732.665 47.2842 732.618 47.7266 732.618 48.2188V48.5703C732.618 48.9863 732.674 49.373 732.785 49.7305C732.902 50.082 733.072 50.3896 733.295 50.6533C733.518 50.917 733.787 51.125 734.104 51.2773C734.42 51.4238 734.78 51.4971 735.185 51.4971C735.694 51.4971 736.148 51.3945 736.547 51.1895C736.945 50.9844 737.291 50.6943 737.584 50.3193L738.7 51.4004C738.495 51.6992 738.229 51.9863 737.9 52.2617C737.572 52.5312 737.171 52.751 736.696 52.9209C736.228 53.0908 735.683 53.1758 735.062 53.1758ZM742.787 39.5V53H740.66V39.5H742.787ZM747.234 45.3184V56.6562H745.116V43.4902H747.067L747.234 45.3184ZM753.431 48.1572V48.3418C753.431 49.0332 753.349 49.6748 753.185 50.2666C753.026 50.8525 752.789 51.3652 752.473 51.8047C752.162 52.2383 751.778 52.5752 751.321 52.8154C750.864 53.0557 750.337 53.1758 749.739 53.1758C749.147 53.1758 748.629 53.0674 748.184 52.8506C747.744 52.6279 747.372 52.3145 747.067 51.9102C746.763 51.5059 746.517 51.0312 746.329 50.4863C746.147 49.9355 746.019 49.332 745.942 48.6758V47.9639C746.019 47.2666 746.147 46.6338 746.329 46.0654C746.517 45.4971 746.763 45.0078 747.067 44.5977C747.372 44.1875 747.744 43.8711 748.184 43.6484C748.623 43.4258 749.136 43.3145 749.722 43.3145C750.319 43.3145 750.85 43.4316 751.312 43.666C751.775 43.8945 752.165 44.2227 752.481 44.6504C752.798 45.0723 753.035 45.582 753.193 46.1797C753.352 46.7715 753.431 47.4307 753.431 48.1572ZM751.312 48.3418V48.1572C751.312 47.7178 751.271 47.3105 751.189 46.9355C751.107 46.5547 750.979 46.2207 750.803 45.9336C750.627 45.6465 750.401 45.4238 750.126 45.2656C749.856 45.1016 749.531 45.0195 749.15 45.0195C748.775 45.0195 748.453 45.084 748.184 45.2129C747.914 45.3359 747.688 45.5088 747.507 45.7314C747.325 45.9541 747.185 46.2148 747.085 46.5137C746.985 46.8066 746.915 47.126 746.874 47.4717V49.1768C746.944 49.5986 747.064 49.9854 747.234 50.3369C747.404 50.6885 747.645 50.9697 747.955 51.1807C748.271 51.3857 748.676 51.4883 749.168 51.4883C749.549 51.4883 749.874 51.4062 750.144 51.2422C750.413 51.0781 750.633 50.8525 750.803 50.5654C750.979 50.2725 751.107 49.9355 751.189 49.5547C751.271 49.1738 751.312 48.7695 751.312 48.3418ZM763.6 51.4883C763.945 51.4883 764.256 51.4209 764.531 51.2861C764.812 51.1455 765.038 50.9521 765.208 50.7061C765.384 50.46 765.48 50.1758 765.498 49.8535H767.493C767.481 50.4688 767.3 51.0283 766.948 51.5322C766.597 52.0361 766.131 52.4375 765.551 52.7363C764.971 53.0293 764.329 53.1758 763.626 53.1758C762.899 53.1758 762.267 53.0527 761.728 52.8066C761.188 52.5547 760.74 52.209 760.383 51.7695C760.025 51.3301 759.756 50.8232 759.574 50.249C759.398 49.6748 759.311 49.0596 759.311 48.4033V48.0957C759.311 47.4395 759.398 46.8242 759.574 46.25C759.756 45.6699 760.025 45.1602 760.383 44.7207C760.74 44.2812 761.188 43.9385 761.728 43.6924C762.267 43.4404 762.896 43.3145 763.617 43.3145C764.379 43.3145 765.047 43.4668 765.621 43.7715C766.195 44.0703 766.646 44.4893 766.975 45.0283C767.309 45.5615 767.481 46.1826 767.493 46.8916H765.498C765.48 46.54 765.393 46.2236 765.234 45.9424C765.082 45.6553 764.865 45.4268 764.584 45.2568C764.309 45.0869 763.978 45.002 763.591 45.002C763.163 45.002 762.809 45.0898 762.527 45.2656C762.246 45.4355 762.026 45.6699 761.868 45.9688C761.71 46.2617 761.596 46.5928 761.525 46.9619C761.461 47.3252 761.429 47.7031 761.429 48.0957V48.4033C761.429 48.7959 761.461 49.1768 761.525 49.5459C761.59 49.915 761.701 50.2461 761.859 50.5391C762.023 50.8262 762.246 51.0576 762.527 51.2334C762.809 51.4033 763.166 51.4883 763.6 51.4883ZM773.312 53.1758C772.608 53.1758 771.973 53.0615 771.404 52.833C770.842 52.5986 770.361 52.2734 769.963 51.8574C769.57 51.4414 769.269 50.9521 769.058 50.3896C768.847 49.8271 768.741 49.2207 768.741 48.5703V48.2188C768.741 47.4746 768.85 46.8008 769.066 46.1973C769.283 45.5938 769.585 45.0781 769.972 44.6504C770.358 44.2168 770.815 43.8857 771.343 43.6572C771.87 43.4287 772.441 43.3145 773.057 43.3145C773.736 43.3145 774.331 43.4287 774.841 43.6572C775.351 43.8857 775.772 44.208 776.106 44.624C776.446 45.0342 776.698 45.5234 776.862 46.0918C777.032 46.6602 777.117 47.2871 777.117 47.9727V48.8779H769.77V47.3574H775.025V47.1904C775.014 46.8096 774.938 46.4521 774.797 46.1182C774.662 45.7842 774.454 45.5146 774.173 45.3096C773.892 45.1045 773.517 45.002 773.048 45.002C772.696 45.002 772.383 45.0781 772.107 45.2305C771.838 45.377 771.612 45.5908 771.431 45.8721C771.249 46.1533 771.108 46.4932 771.009 46.8916C770.915 47.2842 770.868 47.7266 770.868 48.2188V48.5703C770.868 48.9863 770.924 49.373 771.035 49.7305C771.152 50.082 771.322 50.3896 771.545 50.6533C771.768 50.917 772.037 51.125 772.354 51.2773C772.67 51.4238 773.03 51.4971 773.435 51.4971C773.944 51.4971 774.398 51.3945 774.797 51.1895C775.195 50.9844 775.541 50.6943 775.834 50.3193L776.95 51.4004C776.745 51.6992 776.479 51.9863 776.15 52.2617C775.822 52.5312 775.421 52.751 774.946 52.9209C774.478 53.0908 773.933 53.1758 773.312 53.1758ZM780.87 45.5205V53H778.752V43.4902H780.747L780.87 45.5205ZM780.492 47.8936L779.807 47.8848C779.812 47.2109 779.906 46.5928 780.088 46.0303C780.275 45.4678 780.533 44.9844 780.861 44.5801C781.195 44.1758 781.594 43.8652 782.057 43.6484C782.52 43.4258 783.035 43.3145 783.604 43.3145C784.061 43.3145 784.474 43.3789 784.843 43.5078C785.218 43.6309 785.537 43.833 785.801 44.1143C786.07 44.3955 786.275 44.7617 786.416 45.2129C786.557 45.6582 786.627 46.2061 786.627 46.8564V53H784.5V46.8477C784.5 46.3906 784.433 46.0303 784.298 45.7666C784.169 45.4971 783.979 45.3066 783.727 45.1953C783.48 45.0781 783.173 45.0195 782.804 45.0195C782.44 45.0195 782.115 45.0957 781.828 45.248C781.541 45.4004 781.298 45.6084 781.099 45.8721C780.905 46.1357 780.756 46.4404 780.65 46.7861C780.545 47.1318 780.492 47.501 780.492 47.8936ZM793.148 43.4902V45.0371H787.787V43.4902H793.148ZM789.334 41.1611H791.452V50.3721C791.452 50.665 791.493 50.8906 791.575 51.0488C791.663 51.2012 791.783 51.3037 791.936 51.3564C792.088 51.4092 792.267 51.4355 792.472 51.4355C792.618 51.4355 792.759 51.4268 792.894 51.4092C793.028 51.3916 793.137 51.374 793.219 51.3564L793.228 52.9736C793.052 53.0264 792.847 53.0732 792.612 53.1143C792.384 53.1553 792.12 53.1758 791.821 53.1758C791.335 53.1758 790.904 53.0908 790.529 52.9209C790.154 52.7451 789.861 52.4609 789.65 52.0684C789.439 51.6758 789.334 51.1543 789.334 50.5039V41.1611ZM798.976 53.1758C798.272 53.1758 797.637 53.0615 797.068 52.833C796.506 52.5986 796.025 52.2734 795.627 51.8574C795.234 51.4414 794.933 50.9521 794.722 50.3896C794.511 49.8271 794.405 49.2207 794.405 48.5703V48.2188C794.405 47.4746 794.514 46.8008 794.73 46.1973C794.947 45.5938 795.249 45.0781 795.636 44.6504C796.022 44.2168 796.479 43.8857 797.007 43.6572C797.534 43.4287 798.105 43.3145 798.721 43.3145C799.4 43.3145 799.995 43.4287 800.505 43.6572C801.015 43.8857 801.437 44.208 801.771 44.624C802.11 45.0342 802.362 45.5234 802.526 46.0918C802.696 46.6602 802.781 47.2871 802.781 47.9727V48.8779H795.434V47.3574H800.689V47.1904C800.678 46.8096 800.602 46.4521 800.461 46.1182C800.326 45.7842 800.118 45.5146 799.837 45.3096C799.556 45.1045 799.181 45.002 798.712 45.002C798.36 45.002 798.047 45.0781 797.771 45.2305C797.502 45.377 797.276 45.5908 797.095 45.8721C796.913 46.1533 796.772 46.4932 796.673 46.8916C796.579 47.2842 796.532 47.7266 796.532 48.2188V48.5703C796.532 48.9863 796.588 49.373 796.699 49.7305C796.816 50.082 796.986 50.3896 797.209 50.6533C797.432 50.917 797.701 51.125 798.018 51.2773C798.334 51.4238 798.694 51.4971 799.099 51.4971C799.608 51.4971 800.062 51.3945 800.461 51.1895C800.859 50.9844 801.205 50.6943 801.498 50.3193L802.614 51.4004C802.409 51.6992 802.143 51.9863 801.814 52.2617C801.486 52.5312 801.085 52.751 800.61 52.9209C800.142 53.0908 799.597 53.1758 798.976 53.1758ZM806.561 45.3008V53H804.442V43.4902H806.464L806.561 45.3008ZM809.47 43.4287L809.452 45.3975C809.323 45.374 809.183 45.3564 809.03 45.3447C808.884 45.333 808.737 45.3271 808.591 45.3271C808.228 45.3271 807.908 45.3799 807.633 45.4854C807.357 45.585 807.126 45.7314 806.938 45.9248C806.757 46.1123 806.616 46.3408 806.517 46.6104C806.417 46.8799 806.358 47.1816 806.341 47.5156L805.857 47.5508C805.857 46.9531 805.916 46.3994 806.033 45.8896C806.15 45.3799 806.326 44.9316 806.561 44.5449C806.801 44.1582 807.1 43.8564 807.457 43.6396C807.82 43.4229 808.239 43.3145 808.714 43.3145C808.843 43.3145 808.98 43.3262 809.127 43.3496C809.279 43.373 809.394 43.3994 809.47 43.4287Z" fill="#121E2D"/>
<path d="M853.127 46.4609V51.3477C852.945 51.5879 852.661 51.8516 852.274 52.1387C851.894 52.4199 851.387 52.6631 850.754 52.8682C850.121 53.0732 849.333 53.1758 848.39 53.1758C847.587 53.1758 846.852 53.041 846.184 52.7715C845.516 52.4961 844.938 52.0947 844.452 51.5674C843.972 51.04 843.6 50.3984 843.336 49.6426C843.072 48.8809 842.94 48.0137 842.94 47.041V46.1533C842.94 45.1865 843.061 44.3252 843.301 43.5693C843.547 42.8076 843.898 42.1631 844.355 41.6357C844.812 41.1084 845.363 40.71 846.008 40.4404C846.658 40.165 847.394 40.0273 848.214 40.0273C849.263 40.0273 850.13 40.2031 850.815 40.5547C851.507 40.9004 852.04 41.3809 852.415 41.9961C852.79 42.6113 853.027 43.3145 853.127 44.1055H850.965C850.895 43.6602 850.757 43.2617 850.552 42.9102C850.353 42.5586 850.065 42.2832 849.69 42.084C849.321 41.8789 848.841 41.7764 848.249 41.7764C847.739 41.7764 847.291 41.873 846.904 42.0664C846.518 42.2598 846.195 42.5439 845.938 42.9189C845.686 43.2939 845.495 43.751 845.366 44.29C845.237 44.8291 845.173 45.4443 845.173 46.1357V47.041C845.173 47.7441 845.246 48.3682 845.393 48.9131C845.545 49.458 845.762 49.918 846.043 50.293C846.33 50.668 846.679 50.9521 847.089 51.1455C847.499 51.333 847.962 51.4268 848.478 51.4268C848.981 51.4268 849.395 51.3857 849.717 51.3037C850.039 51.2158 850.294 51.1133 850.481 50.9961C850.675 50.873 850.824 50.7559 850.93 50.6445V48.1045H848.267V46.4609H853.127ZM859.552 53.1758C858.849 53.1758 858.213 53.0615 857.645 52.833C857.082 52.5986 856.602 52.2734 856.203 51.8574C855.811 51.4414 855.509 50.9521 855.298 50.3896C855.087 49.8271 854.981 49.2207 854.981 48.5703V48.2188C854.981 47.4746 855.09 46.8008 855.307 46.1973C855.523 45.5938 855.825 45.0781 856.212 44.6504C856.599 44.2168 857.056 43.8857 857.583 43.6572C858.11 43.4287 858.682 43.3145 859.297 43.3145C859.977 43.3145 860.571 43.4287 861.081 43.6572C861.591 43.8857 862.013 44.208 862.347 44.624C862.687 45.0342 862.938 45.5234 863.103 46.0918C863.272 46.6602 863.357 47.2871 863.357 47.9727V48.8779H856.01V47.3574H861.266V47.1904C861.254 46.8096 861.178 46.4521 861.037 46.1182C860.902 45.7842 860.694 45.5146 860.413 45.3096C860.132 45.1045 859.757 45.002 859.288 45.002C858.937 45.002 858.623 45.0781 858.348 45.2305C858.078 45.377 857.853 45.5908 857.671 45.8721C857.489 46.1533 857.349 46.4932 857.249 46.8916C857.155 47.2842 857.108 47.7266 857.108 48.2188V48.5703C857.108 48.9863 857.164 49.373 857.275 49.7305C857.393 50.082 857.562 50.3896 857.785 50.6533C858.008 50.917 858.277 51.125 858.594 51.2773C858.91 51.4238 859.271 51.4971 859.675 51.4971C860.185 51.4971 860.639 51.3945 861.037 51.1895C861.436 50.9844 861.781 50.6943 862.074 50.3193L863.19 51.4004C862.985 51.6992 862.719 51.9863 862.391 52.2617C862.062 52.5312 861.661 52.751 861.187 52.9209C860.718 53.0908 860.173 53.1758 859.552 53.1758ZM869.369 43.4902V45.0371H864.008V43.4902H869.369ZM865.555 41.1611H867.673V50.3721C867.673 50.665 867.714 50.8906 867.796 51.0488C867.884 51.2012 868.004 51.3037 868.156 51.3564C868.309 51.4092 868.487 51.4355 868.692 51.4355C868.839 51.4355 868.979 51.4268 869.114 51.4092C869.249 51.3916 869.357 51.374 869.439 51.3564L869.448 52.9736C869.272 53.0264 869.067 53.0732 868.833 53.1143C868.604 53.1553 868.341 53.1758 868.042 53.1758C867.556 53.1758 867.125 53.0908 866.75 52.9209C866.375 52.7451 866.082 52.4609 865.871 52.0684C865.66 51.6758 865.555 51.1543 865.555 50.5039V41.1611ZM880.821 50.4248C880.821 50.2139 880.769 50.0234 880.663 49.8535C880.558 49.6777 880.355 49.5195 880.057 49.3789C879.764 49.2383 879.33 49.1094 878.756 48.9922C878.252 48.8809 877.789 48.749 877.367 48.5967C876.951 48.4385 876.594 48.248 876.295 48.0254C875.996 47.8027 875.765 47.5391 875.601 47.2344C875.437 46.9297 875.354 46.5781 875.354 46.1797C875.354 45.793 875.439 45.4268 875.609 45.0811C875.779 44.7354 876.022 44.4307 876.339 44.167C876.655 43.9033 877.039 43.6953 877.49 43.543C877.947 43.3906 878.457 43.3145 879.02 43.3145C879.816 43.3145 880.499 43.4492 881.067 43.7188C881.642 43.9824 882.081 44.3428 882.386 44.7998C882.69 45.251 882.843 45.7607 882.843 46.3291H880.725C880.725 46.0771 880.66 45.8428 880.531 45.626C880.408 45.4033 880.221 45.2246 879.969 45.0898C879.717 44.9492 879.4 44.8789 879.02 44.8789C878.656 44.8789 878.354 44.9375 878.114 45.0547C877.88 45.166 877.704 45.3125 877.587 45.4941C877.476 45.6758 877.42 45.875 877.42 46.0918C877.42 46.25 877.449 46.3936 877.508 46.5225C877.572 46.6455 877.678 46.7598 877.824 46.8652C877.971 46.9648 878.17 47.0586 878.422 47.1465C878.68 47.2344 879.002 47.3193 879.389 47.4014C880.115 47.5537 880.739 47.75 881.261 47.9902C881.788 48.2246 882.192 48.5293 882.474 48.9043C882.755 49.2734 882.896 49.7422 882.896 50.3105C882.896 50.7324 882.805 51.1191 882.623 51.4707C882.447 51.8164 882.189 52.1182 881.85 52.376C881.51 52.6279 881.103 52.8242 880.628 52.9648C880.159 53.1055 879.632 53.1758 879.046 53.1758C878.185 53.1758 877.455 53.0234 876.857 52.7188C876.26 52.4082 875.806 52.0127 875.495 51.5322C875.19 51.0459 875.038 50.542 875.038 50.0205H877.086C877.109 50.4131 877.218 50.7266 877.411 50.9609C877.61 51.1895 877.856 51.3564 878.149 51.4619C878.448 51.5615 878.756 51.6113 879.072 51.6113C879.453 51.6113 879.772 51.5615 880.03 51.4619C880.288 51.3564 880.484 51.2158 880.619 51.04C880.754 50.8584 880.821 50.6533 880.821 50.4248ZM889.109 43.4902V45.0371H883.748V43.4902H889.109ZM885.295 41.1611H887.413V50.3721C887.413 50.665 887.454 50.8906 887.536 51.0488C887.624 51.2012 887.744 51.3037 887.896 51.3564C888.049 51.4092 888.228 51.4355 888.433 51.4355C888.579 51.4355 888.72 51.4268 888.854 51.4092C888.989 51.3916 889.098 51.374 889.18 51.3564L889.188 52.9736C889.013 53.0264 888.808 53.0732 888.573 53.1143C888.345 53.1553 888.081 53.1758 887.782 53.1758C887.296 53.1758 886.865 53.0908 886.49 52.9209C886.115 52.7451 885.822 52.4609 885.611 52.0684C885.4 51.6758 885.295 51.1543 885.295 50.5039V41.1611ZM896.105 51.0928V46.5576C896.105 46.2178 896.044 45.9248 895.921 45.6787C895.798 45.4326 895.61 45.2422 895.358 45.1074C895.112 44.9727 894.802 44.9053 894.427 44.9053C894.081 44.9053 893.782 44.9639 893.53 45.0811C893.278 45.1982 893.082 45.3564 892.941 45.5557C892.801 45.7549 892.73 45.9805 892.73 46.2324H890.621C890.621 45.8574 890.712 45.4941 890.894 45.1426C891.075 44.791 891.339 44.4775 891.685 44.2021C892.03 43.9268 892.443 43.71 892.924 43.5518C893.404 43.3936 893.943 43.3145 894.541 43.3145C895.256 43.3145 895.889 43.4346 896.439 43.6748C896.996 43.915 897.433 44.2783 897.749 44.7646C898.071 45.2451 898.232 45.8486 898.232 46.5752V50.8027C898.232 51.2363 898.262 51.626 898.32 51.9717C898.385 52.3115 898.476 52.6074 898.593 52.8594V53H896.422C896.322 52.7715 896.243 52.4814 896.185 52.1299C896.132 51.7725 896.105 51.4268 896.105 51.0928ZM896.413 47.2168L896.431 48.5264H894.91C894.518 48.5264 894.172 48.5645 893.873 48.6406C893.574 48.7109 893.325 48.8164 893.126 48.957C892.927 49.0977 892.777 49.2676 892.678 49.4668C892.578 49.666 892.528 49.8916 892.528 50.1436C892.528 50.3955 892.587 50.627 892.704 50.8379C892.821 51.043 892.991 51.2041 893.214 51.3213C893.442 51.4385 893.718 51.4971 894.04 51.4971C894.474 51.4971 894.852 51.4092 895.174 51.2334C895.502 51.0518 895.76 50.832 895.947 50.5742C896.135 50.3105 896.234 50.0615 896.246 49.8271L896.932 50.7676C896.861 51.0078 896.741 51.2656 896.571 51.541C896.401 51.8164 896.179 52.0801 895.903 52.332C895.634 52.5781 895.309 52.7803 894.928 52.9385C894.553 53.0967 894.119 53.1758 893.627 53.1758C893.006 53.1758 892.452 53.0527 891.966 52.8066C891.479 52.5547 891.099 52.2178 890.823 51.7959C890.548 51.3682 890.41 50.8848 890.41 50.3457C890.41 49.8418 890.504 49.3965 890.691 49.0098C890.885 48.6172 891.166 48.2891 891.535 48.0254C891.91 47.7617 892.367 47.5625 892.906 47.4277C893.445 47.2871 894.061 47.2168 894.752 47.2168H896.413ZM902.574 45.3008V53H900.456V43.4902H902.478L902.574 45.3008ZM905.483 43.4287L905.466 45.3975C905.337 45.374 905.196 45.3564 905.044 45.3447C904.897 45.333 904.751 45.3271 904.604 45.3271C904.241 45.3271 903.922 45.3799 903.646 45.4854C903.371 45.585 903.14 45.7314 902.952 45.9248C902.771 46.1123 902.63 46.3408 902.53 46.6104C902.431 46.8799 902.372 47.1816 902.354 47.5156L901.871 47.5508C901.871 46.9531 901.93 46.3994 902.047 45.8896C902.164 45.3799 902.34 44.9316 902.574 44.5449C902.814 44.1582 903.113 43.8564 903.471 43.6396C903.834 43.4229 904.253 43.3145 904.728 43.3145C904.856 43.3145 904.994 43.3262 905.141 43.3496C905.293 43.373 905.407 43.3994 905.483 43.4287ZM911.609 43.4902V45.0371H906.248V43.4902H911.609ZM907.795 41.1611H909.913V50.3721C909.913 50.665 909.954 50.8906 910.036 51.0488C910.124 51.2012 910.244 51.3037 910.396 51.3564C910.549 51.4092 910.728 51.4355 910.933 51.4355C911.079 51.4355 911.22 51.4268 911.354 51.4092C911.489 51.3916 911.598 51.374 911.68 51.3564L911.688 52.9736C911.513 53.0264 911.308 53.0732 911.073 53.1143C910.845 53.1553 910.581 53.1758 910.282 53.1758C909.796 53.1758 909.365 53.0908 908.99 52.9209C908.615 52.7451 908.322 52.4609 908.111 52.0684C907.9 51.6758 907.795 51.1543 907.795 50.5039V41.1611ZM917.437 53.1758C916.733 53.1758 916.098 53.0615 915.529 52.833C914.967 52.5986 914.486 52.2734 914.088 51.8574C913.695 51.4414 913.394 50.9521 913.183 50.3896C912.972 49.8271 912.866 49.2207 912.866 48.5703V48.2188C912.866 47.4746 912.975 46.8008 913.191 46.1973C913.408 45.5938 913.71 45.0781 914.097 44.6504C914.483 44.2168 914.94 43.8857 915.468 43.6572C915.995 43.4287 916.566 43.3145 917.182 43.3145C917.861 43.3145 918.456 43.4287 918.966 43.6572C919.476 43.8857 919.897 44.208 920.231 44.624C920.571 45.0342 920.823 45.5234 920.987 46.0918C921.157 46.6602 921.242 47.2871 921.242 47.9727V48.8779H913.895V47.3574H919.15V47.1904C919.139 46.8096 919.062 46.4521 918.922 46.1182C918.787 45.7842 918.579 45.5146 918.298 45.3096C918.017 45.1045 917.642 45.002 917.173 45.002C916.821 45.002 916.508 45.0781 916.232 45.2305C915.963 45.377 915.737 45.5908 915.556 45.8721C915.374 46.1533 915.233 46.4932 915.134 46.8916C915.04 47.2842 914.993 47.7266 914.993 48.2188V48.5703C914.993 48.9863 915.049 49.373 915.16 49.7305C915.277 50.082 915.447 50.3896 915.67 50.6533C915.893 50.917 916.162 51.125 916.479 51.2773C916.795 51.4238 917.155 51.4971 917.56 51.4971C918.069 51.4971 918.523 51.3945 918.922 51.1895C919.32 50.9844 919.666 50.6943 919.959 50.3193L921.075 51.4004C920.87 51.6992 920.604 51.9863 920.275 52.2617C919.947 52.5312 919.546 52.751 919.071 52.9209C918.603 53.0908 918.058 53.1758 917.437 53.1758ZM928.695 51.0312V39.5H930.822V53H928.897L928.695 51.0312ZM922.508 48.3506V48.166C922.508 47.4453 922.593 46.7891 922.763 46.1973C922.933 45.5996 923.179 45.0869 923.501 44.6592C923.823 44.2256 924.216 43.8945 924.679 43.666C925.142 43.4316 925.663 43.3145 926.243 43.3145C926.817 43.3145 927.321 43.4258 927.755 43.6484C928.188 43.8711 928.558 44.1904 928.862 44.6064C929.167 45.0166 929.41 45.5088 929.592 46.083C929.773 46.6514 929.902 47.2842 929.979 47.9814V48.5703C929.902 49.25 929.773 49.8711 929.592 50.4336C929.41 50.9961 929.167 51.4824 928.862 51.8926C928.558 52.3027 928.186 52.6191 927.746 52.8418C927.312 53.0645 926.806 53.1758 926.226 53.1758C925.651 53.1758 925.133 53.0557 924.67 52.8154C924.213 52.5752 923.823 52.2383 923.501 51.8047C923.179 51.3711 922.933 50.8613 922.763 50.2754C922.593 49.6836 922.508 49.042 922.508 48.3506ZM924.626 48.166V48.3506C924.626 48.7842 924.664 49.1885 924.74 49.5635C924.822 49.9385 924.948 50.2695 925.118 50.5566C925.288 50.8379 925.508 51.0605 925.777 51.2246C926.053 51.3828 926.381 51.4619 926.762 51.4619C927.242 51.4619 927.638 51.3564 927.948 51.1455C928.259 50.9346 928.502 50.6504 928.678 50.293C928.859 49.9297 928.982 49.5254 929.047 49.0801V47.4893C929.012 47.1436 928.938 46.8213 928.827 46.5225C928.722 46.2236 928.578 45.9629 928.396 45.7402C928.215 45.5117 927.989 45.3359 927.72 45.2129C927.456 45.084 927.143 45.0195 926.779 45.0195C926.393 45.0195 926.064 45.1016 925.795 45.2656C925.525 45.4297 925.303 45.6553 925.127 45.9424C924.957 46.2295 924.831 46.5635 924.749 46.9443C924.667 47.3252 924.626 47.7324 924.626 48.166Z" fill="#121E2D"/>
<g clip-path="url(#clip0_1_704)">
<path d="M296.475 55.9309V35.521H301.824V39.1539H302.08C302.506 37.949 303.217 36.9997 304.215 36.306C305.213 35.6123 306.4 35.2654 307.775 35.2654C309.175 35.2654 310.362 35.6184 311.335 36.3243C312.321 37.018 312.978 37.9612 313.307 39.1539H313.526C313.94 37.9734 314.694 37.0302 315.79 36.3243C316.885 35.6184 318.175 35.2654 319.66 35.2654C321.558 35.2654 323.104 35.8679 324.297 37.0728C325.502 38.2776 326.104 39.9876 326.104 42.2026V55.9309H320.445V43.3345C320.445 42.1904 320.141 41.3385 319.532 40.7787C318.936 40.2188 318.187 39.9389 317.287 39.9389C316.264 39.9389 315.461 40.2675 314.877 40.9247C314.305 41.5698 314.019 42.4217 314.019 43.4805V55.9309H308.542V43.1884C308.542 42.2026 308.256 41.4176 307.684 40.8334C307.112 40.2371 306.364 39.9389 305.439 39.9389C304.806 39.9389 304.24 40.0971 303.741 40.4136C303.242 40.73 302.846 41.1681 302.554 41.728C302.262 42.2756 302.116 42.9328 302.116 43.6996V55.9309H296.475Z" fill="#1A1A1A"/>
<path d="M288.428 47.2595V35.521H294.069V55.9309H288.647V52.225H288.428C287.966 53.4056 287.205 54.367 286.146 55.1094C285.087 55.8397 283.791 56.1987 282.258 56.1865C280.894 56.1865 279.69 55.8823 278.643 55.2737C277.608 54.653 276.799 53.7707 276.215 52.6266C275.643 51.4826 275.357 50.1134 275.357 48.5191V35.521H280.998V47.5333C280.998 48.726 281.32 49.6753 281.966 50.3812C282.611 51.0749 283.469 51.4157 284.54 51.4035C285.221 51.4035 285.854 51.2514 286.438 50.9471C287.022 50.6307 287.497 50.1621 287.862 49.5414C288.239 48.9207 288.428 48.1601 288.428 47.2595Z" fill="#1A1A1A"/>
<path d="M273.444 41.3446L268.277 41.6549C268.143 41.0099 267.784 40.4562 267.2 39.9937C266.616 39.519 265.831 39.2817 264.845 39.2817C263.969 39.2817 263.233 39.4643 262.636 39.8294C262.052 40.1945 261.76 40.6813 261.76 41.2898C261.76 41.7767 261.949 42.1965 262.326 42.5495C262.715 42.8903 263.379 43.158 264.316 43.3527L268.022 44.083C270.006 44.4846 271.484 45.1357 272.458 46.0363C273.432 46.9369 273.918 48.1236 273.918 49.5962C273.918 50.9471 273.529 52.1277 272.75 53.1378C271.971 54.1358 270.9 54.9208 269.537 55.4928C268.174 56.0526 266.61 56.3326 264.845 56.3326C262.143 56.3326 259.989 55.7666 258.383 54.6348C256.788 53.5029 255.857 51.9694 255.59 50.0343L261.121 49.7422C261.304 50.5698 261.717 51.1966 262.362 51.6226C263.008 52.0485 263.835 52.2615 264.845 52.2615C265.831 52.2615 266.628 52.0668 267.237 51.6773C267.857 51.2879 268.168 50.795 268.168 50.1986C268.168 49.1885 267.292 48.5069 265.539 48.154L262.016 47.4238C260.032 47.0221 258.553 46.3345 257.579 45.3609C256.606 44.3872 256.119 43.1397 256.119 41.6184C256.119 40.304 256.478 39.1722 257.196 38.2229C257.914 37.2736 258.918 36.5433 260.208 36.0322C261.511 35.521 263.032 35.2654 264.772 35.2654C267.352 35.2654 269.379 35.8131 270.851 36.9085C272.336 37.9916 273.2 39.4703 273.444 41.3446Z" fill="#1A1A1A"/>
<path d="M235.092 63.5618V35.521H240.642V38.9714H240.897C241.153 38.4115 241.518 37.8456 241.993 37.2736C242.467 36.7016 243.088 36.2269 243.855 35.8496C244.622 35.4602 245.571 35.2654 246.703 35.2654C248.2 35.2654 249.569 35.6549 250.81 36.4338C252.064 37.2005 253.068 38.3628 253.822 39.9207C254.577 41.4785 254.954 43.4258 254.954 45.7625C254.954 48.0262 254.589 49.943 253.859 51.513C253.129 53.0709 252.137 54.2514 250.883 55.0547C249.642 55.8579 248.242 56.2595 246.684 56.2595C245.589 56.2595 244.658 56.077 243.891 55.7119C243.125 55.3467 242.498 54.8904 242.011 54.3427C241.536 53.7828 241.165 53.223 240.897 52.6632H240.733V63.5618H235.092ZM244.895 51.7686C245.82 51.7686 246.599 51.513 247.232 51.0019C247.865 50.4907 248.346 49.7848 248.674 48.8842C249.003 47.9714 249.167 46.9248 249.167 45.7442C249.167 44.5637 249.003 43.5292 248.674 42.6408C248.358 41.7401 247.883 41.0343 247.25 40.5231C246.617 40.0119 245.832 39.7564 244.895 39.7564C243.983 39.7564 243.204 40.0058 242.559 40.5048C241.926 40.9917 241.439 41.6854 241.098 42.586C240.77 43.4744 240.605 44.5272 240.605 45.7442C240.605 46.9491 240.776 48.0019 241.116 48.9025C241.457 49.8031 241.944 50.509 242.577 51.0201C243.222 51.5191 243.995 51.7686 244.895 51.7686Z" fill="#1A1A1A"/>
<path d="M227.045 55.9309V35.521H232.686V55.9309H227.045ZM229.856 32.9105C229.016 32.9105 228.298 32.6305 227.702 32.0707C227.106 31.5109 226.808 30.8354 226.808 30.0443C226.808 29.2532 227.106 28.5839 227.702 28.0362C228.298 27.4763 229.016 27.1964 229.856 27.1964C230.708 27.1964 231.432 27.4763 232.029 28.0362C232.625 28.5839 232.923 29.2532 232.923 30.0443C232.923 30.8354 232.625 31.5109 232.029 32.0707C231.432 32.6305 230.708 32.9105 229.856 32.9105Z" fill="#1A1A1A"/>
<path d="M215.438 56.3326C213.381 56.3326 211.598 55.8944 210.089 55.0181C208.592 54.1297 207.436 52.9005 206.62 51.3305C205.817 49.7483 205.416 47.9106 205.416 45.8173C205.416 43.6996 205.817 41.8558 206.62 40.2858C207.436 38.7036 208.592 37.4744 210.089 36.5981C211.598 35.7097 213.381 35.2654 215.438 35.2654C217.507 35.2654 219.29 35.7097 220.787 36.5981C222.296 37.4744 223.452 38.7036 224.255 40.2858C225.071 41.8558 225.479 43.6996 225.479 45.8173C225.479 47.9106 225.071 49.7483 224.255 51.3305C223.452 52.9005 222.296 54.1297 220.787 55.0181C219.29 55.8944 217.507 56.3326 215.438 56.3326ZM215.474 51.9147C216.412 51.9147 217.197 51.653 217.829 51.1297C218.462 50.5942 218.937 49.8639 219.253 48.939C219.582 48.014 219.746 46.9613 219.746 45.7807C219.746 44.588 219.582 43.5353 219.253 42.6225C218.937 41.7097 218.462 40.9917 217.829 40.4683C217.197 39.945 216.412 39.6833 215.474 39.6833C214.525 39.6833 213.728 39.945 213.083 40.4683C212.45 40.9917 211.969 41.7097 211.641 42.6225C211.324 43.5353 211.166 44.588 211.166 45.7807C211.166 46.9613 211.324 48.014 211.641 48.939C211.969 49.8639 212.45 50.5942 213.083 51.1297C213.728 51.653 214.525 51.9147 215.474 51.9147Z" fill="#1A1A1A"/>
<path d="M193.9 64C191.149 64 188.995 63.4523 187.437 62.3569C185.879 61.2738 184.93 59.9228 184.589 58.3042L189.811 57.6105C189.969 58.0243 190.218 58.4076 190.559 58.7606C190.9 59.1135 191.356 59.3934 191.928 59.6003C192.5 59.8194 193.2 59.9289 194.028 59.9289C195.257 59.9289 196.273 59.6308 197.076 59.0344C197.88 58.4502 198.281 57.4583 198.281 56.0587V52.3163H198.044C197.8 52.8761 197.429 53.4116 196.93 53.9228C196.431 54.434 195.792 54.8478 195.013 55.1642C194.234 55.4806 193.303 55.6388 192.22 55.6388C190.687 55.6388 189.293 55.2859 188.04 54.58C186.798 53.862 185.8 52.7666 185.046 51.294C184.303 49.8213 183.932 47.9593 183.932 45.7077C183.932 43.3832 184.309 41.4481 185.064 39.9024C185.831 38.3567 186.841 37.2005 188.094 36.4338C189.348 35.6549 190.723 35.2654 192.22 35.2654C193.364 35.2654 194.32 35.4602 195.086 35.8496C195.865 36.2269 196.498 36.7016 196.985 37.2736C197.472 37.8456 197.837 38.4115 198.08 38.9714H198.299V35.521H203.867V56.15C203.867 57.8782 203.441 59.3265 202.59 60.4949C201.738 61.6632 200.563 62.5395 199.066 63.1237C197.569 63.7079 195.847 64 193.9 64ZM194.009 51.3853C195.372 51.3853 196.425 50.8802 197.168 49.87C197.922 48.8599 198.299 47.4603 198.299 45.6712C198.299 44.4785 198.129 43.444 197.788 42.5677C197.46 41.6793 196.979 40.9917 196.346 40.5048C195.713 40.0058 194.934 39.7564 194.009 39.7564C193.084 39.7564 192.299 40.0119 191.654 40.5231C191.021 41.0221 190.541 41.7158 190.212 42.6042C189.884 43.4927 189.719 44.515 189.719 45.6712C189.719 46.8396 189.884 47.8558 190.212 48.7199C190.541 49.5719 191.021 50.2291 191.654 50.6915C192.299 51.154 193.084 51.3853 194.009 51.3853Z" fill="#1A1A1A"/>
<path d="M173.165 56.3326C171.108 56.3326 169.325 55.8944 167.816 55.0181C166.319 54.1297 165.163 52.9005 164.347 51.3305C163.544 49.7483 163.143 47.9106 163.143 45.8173C163.143 43.6996 163.544 41.8558 164.347 40.2858C165.163 38.7036 166.319 37.4744 167.816 36.5981C169.325 35.7097 171.108 35.2654 173.165 35.2654C175.234 35.2654 177.017 35.7097 178.514 36.5981C180.023 37.4744 181.179 38.7036 181.982 40.2858C182.798 41.8558 183.206 43.6996 183.206 45.8173C183.206 47.9106 182.798 49.7483 181.982 51.3305C181.179 52.9005 180.023 54.1297 178.514 55.0181C177.017 55.8944 175.234 56.3326 173.165 56.3326ZM173.201 51.9147C174.139 51.9147 174.924 51.653 175.556 51.1297C176.189 50.5942 176.664 49.8639 176.98 48.939C177.309 48.014 177.473 46.9613 177.473 45.7807C177.473 44.588 177.309 43.5353 176.98 42.6225C176.664 41.7097 176.189 40.9917 175.556 40.4683C174.924 39.945 174.139 39.6833 173.201 39.6833C172.252 39.6833 171.455 39.945 170.81 40.4683C170.177 40.9917 169.696 41.7097 169.368 42.6225C169.051 43.5353 168.893 44.588 168.893 45.7807C168.893 46.9613 169.051 48.014 169.368 48.939C169.696 49.8639 170.177 50.5942 170.81 51.1297C171.455 51.653 172.252 51.9147 173.201 51.9147Z" fill="#1A1A1A"/>
<path d="M145 55.9309V28.7299H150.732V51.1844H162.398V55.9309H145Z" fill="#1A1A1A"/>
<path d="M119.395 63C125.827 62.8689 131 57.6073 131 51.1389C131 47.9931 129.751 44.9762 127.528 42.7518L107.789 23V35.2771C107.789 37.3303 108.605 39.2995 110.056 40.7514L114.68 45.3784L114.692 45.3907L122.445 53.149C122.697 53.4009 122.697 53.8094 122.445 54.0613C122.194 54.3133 121.785 54.3133 121.534 54.0613L118.861 51.3871H94.139L91.4665 54.0613C91.2148 54.3133 90.8065 54.3133 90.5548 54.0613C90.303 53.8094 90.303 53.4009 90.5548 53.149L98.3079 45.3907L98.3205 45.3784L102.944 40.7514C104.395 39.2995 105.211 37.3303 105.211 35.2771V23L85.4718 42.7518C83.2488 44.9762 82 47.9931 82 51.1389C82 57.6073 87.1725 62.8689 93.6053 63H119.395Z" fill="#9125FF"/>
</g>
<path d="M1194 45C1194 41.2828 1194 39.4241 1194.31 37.8786C1195.57 31.5315 1200.53 26.5699 1206.88 25.3074C1208.42 25 1210.28 25 1214 25H1326C1329.72 25 1331.58 25 1333.12 25.3074C1339.47 26.5699 1344.43 31.5315 1345.69 37.8786C1346 39.4241 1346 41.2828 1346 45C1346 48.7172 1346 50.5759 1345.69 52.1214C1344.43 58.4685 1339.47 63.4301 1333.12 64.6926C1331.58 65 1329.72 65 1326 65H1214C1210.28 65 1208.42 65 1206.88 64.6926C1200.53 63.4301 1195.57 58.4685 1194.31 52.1214C1194 50.5759 1194 48.7172 1194 45Z" fill="#4532FC"/>
<path d="M1213.16 39.125H1217.18C1218.04 39.125 1218.78 39.2552 1219.39 39.5156C1220 39.776 1220.47 40.1615 1220.79 40.6719C1221.12 41.1771 1221.28 41.8021 1221.28 42.5469C1221.28 43.1146 1221.18 43.6146 1220.97 44.0469C1220.76 44.4792 1220.47 44.8438 1220.09 45.1406C1219.71 45.4323 1219.25 45.6589 1218.73 45.8203L1218.13 46.1094H1214.52L1214.5 44.5547H1217.21C1217.68 44.5547 1218.07 44.4714 1218.38 44.3047C1218.7 44.138 1218.93 43.9115 1219.09 43.625C1219.25 43.3333 1219.33 43.0052 1219.33 42.6406C1219.33 42.2448 1219.25 41.901 1219.09 41.6094C1218.94 41.3125 1218.71 41.0859 1218.39 40.9297C1218.07 40.7682 1217.67 40.6875 1217.18 40.6875H1215.12V50.5H1213.16V39.125ZM1219.65 50.5L1216.98 45.3906L1219.03 45.3828L1221.74 50.3984V50.5H1219.65ZM1226.77 50.6562C1226.15 50.6562 1225.58 50.5547 1225.08 50.3516C1224.58 50.1432 1224.15 49.8542 1223.8 49.4844C1223.45 49.1146 1223.18 48.6797 1222.99 48.1797C1222.8 47.6797 1222.71 47.1406 1222.71 46.5625V46.25C1222.71 45.5885 1222.81 44.9896 1223 44.4531C1223.19 43.9167 1223.46 43.4583 1223.8 43.0781C1224.15 42.6927 1224.55 42.3984 1225.02 42.1953C1225.49 41.9922 1226 41.8906 1226.55 41.8906C1227.15 41.8906 1227.68 41.9922 1228.13 42.1953C1228.59 42.3984 1228.96 42.6849 1229.26 43.0547C1229.56 43.4193 1229.78 43.8542 1229.93 44.3594C1230.08 44.8646 1230.16 45.4219 1230.16 46.0312V46.8359H1223.62V45.4844H1228.3V45.3359C1228.29 44.9974 1228.22 44.6797 1228.09 44.3828C1227.97 44.0859 1227.79 43.8464 1227.54 43.6641C1227.29 43.4818 1226.96 43.3906 1226.54 43.3906C1226.23 43.3906 1225.95 43.4583 1225.7 43.5938C1225.46 43.724 1225.26 43.9141 1225.1 44.1641C1224.94 44.4141 1224.82 44.7161 1224.73 45.0703C1224.64 45.4193 1224.6 45.8125 1224.6 46.25V46.5625C1224.6 46.9323 1224.65 47.276 1224.75 47.5938C1224.85 47.9062 1225.01 48.1797 1225.2 48.4141C1225.4 48.6484 1225.64 48.8333 1225.92 48.9688C1226.2 49.099 1226.52 49.1641 1226.88 49.1641C1227.34 49.1641 1227.74 49.0729 1228.09 48.8906C1228.45 48.7083 1228.76 48.4505 1229.02 48.1172L1230.01 49.0781C1229.83 49.3438 1229.59 49.599 1229.3 49.8438C1229.01 50.0833 1228.65 50.2786 1228.23 50.4297C1227.81 50.5807 1227.33 50.6562 1226.77 50.6562ZM1236.77 53.75V43.7266L1236.99 42.0469H1238.67V53.75H1236.77ZM1231.28 46.3594V46.1953C1231.28 45.5547 1231.35 44.9714 1231.5 44.4453C1231.65 43.9141 1231.86 43.4583 1232.15 43.0781C1232.43 42.6979 1232.78 42.4062 1233.2 42.2031C1233.61 41.9948 1234.08 41.8906 1234.62 41.8906C1235.14 41.8906 1235.59 41.9896 1235.98 42.1875C1236.37 42.3854 1236.7 42.6693 1236.96 43.0391C1237.23 43.4036 1237.45 43.8385 1237.61 44.3438C1237.77 44.849 1237.89 45.4115 1237.96 46.0312V46.5547C1237.89 47.1589 1237.78 47.7109 1237.62 48.2109C1237.46 48.7109 1237.24 49.1432 1236.97 49.5078C1236.7 49.8724 1236.37 50.1562 1235.98 50.3594C1235.59 50.5573 1235.13 50.6562 1234.6 50.6562C1234.08 50.6562 1233.61 50.5495 1233.2 50.3359C1232.78 50.1224 1232.43 49.8229 1232.15 49.4375C1231.87 49.0469 1231.65 48.5911 1231.5 48.0703C1231.35 47.5443 1231.28 46.974 1231.28 46.3594ZM1233.16 46.1953V46.3594C1233.16 46.7448 1233.2 47.1068 1233.27 47.4453C1233.34 47.7786 1233.45 48.0755 1233.61 48.3359C1233.77 48.5911 1233.96 48.7917 1234.2 48.9375C1234.44 49.0833 1234.73 49.1562 1235.07 49.1562C1235.51 49.1562 1235.88 49.0599 1236.16 48.8672C1236.44 48.6745 1236.66 48.4167 1236.81 48.0938C1236.97 47.7656 1237.08 47.4036 1237.14 47.0078V45.5938C1237.1 45.2865 1237.04 45 1236.95 44.7344C1236.85 44.4635 1236.72 44.2292 1236.55 44.0312C1236.39 43.8281 1236.19 43.6719 1235.95 43.5625C1235.71 43.4479 1235.42 43.3906 1235.09 43.3906C1234.75 43.3906 1234.46 43.4635 1234.21 43.6094C1233.97 43.7552 1233.77 43.9583 1233.61 44.2188C1233.46 44.474 1233.35 44.7708 1233.27 45.1094C1233.2 45.4479 1233.16 45.8099 1233.16 46.1953ZM1245.77 48.5078V42.0469H1247.66V50.5H1245.88L1245.77 48.5078ZM1246.04 46.75L1246.67 46.7344C1246.67 47.3021 1246.61 47.8255 1246.48 48.3047C1246.36 48.7786 1246.17 49.1927 1245.91 49.5469C1245.65 49.8958 1245.31 50.1693 1244.91 50.3672C1244.5 50.5599 1244.01 50.6562 1243.45 50.6562C1243.03 50.6562 1242.66 50.5964 1242.31 50.4766C1241.97 50.3568 1241.67 50.1719 1241.42 49.9219C1241.18 49.6719 1240.99 49.3464 1240.85 48.9453C1240.72 48.5443 1240.65 48.0651 1240.65 47.5078V42.0469H1242.53V47.5234C1242.53 47.8307 1242.57 48.0885 1242.64 48.2969C1242.71 48.5 1242.81 48.6641 1242.94 48.7891C1243.06 48.9141 1243.21 49.0026 1243.38 49.0547C1243.54 49.1068 1243.72 49.1328 1243.91 49.1328C1244.44 49.1328 1244.86 49.0286 1245.17 48.8203C1245.48 48.6068 1245.71 48.3203 1245.84 47.9609C1245.97 47.6016 1246.04 47.1979 1246.04 46.75ZM1253.32 50.6562C1252.7 50.6562 1252.13 50.5547 1251.62 50.3516C1251.12 50.1432 1250.7 49.8542 1250.34 49.4844C1249.99 49.1146 1249.73 48.6797 1249.54 48.1797C1249.35 47.6797 1249.26 47.1406 1249.26 46.5625V46.25C1249.26 45.5885 1249.35 44.9896 1249.55 44.4531C1249.74 43.9167 1250.01 43.4583 1250.35 43.0781C1250.7 42.6927 1251.1 42.3984 1251.57 42.1953C1252.04 41.9922 1252.55 41.8906 1253.09 41.8906C1253.7 41.8906 1254.23 41.9922 1254.68 42.1953C1255.13 42.3984 1255.51 42.6849 1255.8 43.0547C1256.11 43.4193 1256.33 43.8542 1256.48 44.3594C1256.63 44.8646 1256.7 45.4219 1256.7 46.0312V46.8359H1250.17V45.4844H1254.84V45.3359C1254.83 44.9974 1254.77 44.6797 1254.64 44.3828C1254.52 44.0859 1254.34 43.8464 1254.09 43.6641C1253.84 43.4818 1253.5 43.3906 1253.09 43.3906C1252.77 43.3906 1252.49 43.4583 1252.25 43.5938C1252.01 43.724 1251.81 43.9141 1251.65 44.1641C1251.49 44.4141 1251.36 44.7161 1251.27 45.0703C1251.19 45.4193 1251.15 45.8125 1251.15 46.25V46.5625C1251.15 46.9323 1251.2 47.276 1251.3 47.5938C1251.4 47.9062 1251.55 48.1797 1251.75 48.4141C1251.95 48.6484 1252.19 48.8333 1252.47 48.9688C1252.75 49.099 1253.07 49.1641 1253.43 49.1641C1253.88 49.1641 1254.29 49.0729 1254.64 48.8906C1254.99 48.7083 1255.3 48.4505 1255.56 48.1172L1256.55 49.0781C1256.37 49.3438 1256.14 49.599 1255.84 49.8438C1255.55 50.0833 1255.2 50.2786 1254.77 50.4297C1254.36 50.5807 1253.87 50.6562 1253.32 50.6562ZM1262.91 48.2109C1262.91 48.0234 1262.87 47.8542 1262.77 47.7031C1262.68 47.5469 1262.5 47.4062 1262.23 47.2812C1261.97 47.1562 1261.59 47.0417 1261.08 46.9375C1260.63 46.8385 1260.22 46.7214 1259.84 46.5859C1259.47 46.4453 1259.16 46.276 1258.89 46.0781C1258.62 45.8802 1258.42 45.6458 1258.27 45.375C1258.13 45.1042 1258.05 44.7917 1258.05 44.4375C1258.05 44.0938 1258.13 43.7682 1258.28 43.4609C1258.43 43.1536 1258.65 42.8828 1258.93 42.6484C1259.21 42.4141 1259.55 42.2292 1259.95 42.0938C1260.36 41.9583 1260.81 41.8906 1261.31 41.8906C1262.02 41.8906 1262.63 42.0104 1263.13 42.25C1263.64 42.4844 1264.03 42.8047 1264.3 43.2109C1264.58 43.612 1264.71 44.0651 1264.71 44.5703H1262.83C1262.83 44.3464 1262.77 44.138 1262.66 43.9453C1262.55 43.7474 1262.38 43.5885 1262.16 43.4688C1261.93 43.3438 1261.65 43.2812 1261.31 43.2812C1260.99 43.2812 1260.72 43.3333 1260.51 43.4375C1260.3 43.5365 1260.14 43.6667 1260.04 43.8281C1259.94 43.9896 1259.89 44.1667 1259.89 44.3594C1259.89 44.5 1259.92 44.6276 1259.97 44.7422C1260.03 44.8516 1260.12 44.9531 1260.25 45.0469C1260.38 45.1354 1260.56 45.2188 1260.78 45.2969C1261.01 45.375 1261.3 45.4505 1261.64 45.5234C1262.29 45.6589 1262.84 45.8333 1263.3 46.0469C1263.77 46.2552 1264.13 46.526 1264.38 46.8594C1264.63 47.1875 1264.76 47.6042 1264.76 48.1094C1264.76 48.4844 1264.68 48.8281 1264.52 49.1406C1264.36 49.4479 1264.13 49.7161 1263.83 49.9453C1263.53 50.1693 1263.16 50.3438 1262.74 50.4688C1262.33 50.5938 1261.86 50.6562 1261.34 50.6562C1260.57 50.6562 1259.92 50.5208 1259.39 50.25C1258.86 49.974 1258.46 49.6224 1258.18 49.1953C1257.91 48.763 1257.77 48.3151 1257.77 47.8516H1259.59C1259.61 48.2005 1259.71 48.4792 1259.88 48.6875C1260.06 48.8906 1260.28 49.0391 1260.54 49.1328C1260.8 49.2214 1261.08 49.2656 1261.36 49.2656C1261.7 49.2656 1261.98 49.2214 1262.21 49.1328C1262.44 49.0391 1262.61 48.9141 1262.73 48.7578C1262.85 48.5964 1262.91 48.4141 1262.91 48.2109ZM1270.28 42.0469V43.4219H1265.52V42.0469H1270.28ZM1266.89 39.9766H1268.77V48.1641C1268.77 48.4245 1268.81 48.625 1268.88 48.7656C1268.96 48.901 1269.07 48.9922 1269.2 49.0391C1269.34 49.0859 1269.5 49.1094 1269.68 49.1094C1269.81 49.1094 1269.93 49.1016 1270.05 49.0859C1270.17 49.0703 1270.27 49.0547 1270.34 49.0391L1270.35 50.4766C1270.2 50.5234 1270.01 50.5651 1269.8 50.6016C1269.6 50.638 1269.37 50.6562 1269.1 50.6562C1268.67 50.6562 1268.29 50.5807 1267.95 50.4297C1267.62 50.2734 1267.36 50.0208 1267.17 49.6719C1266.98 49.3229 1266.89 48.8594 1266.89 48.2812V39.9766ZM1280.48 48.8047V44.7734C1280.48 44.4714 1280.43 44.2109 1280.32 43.9922C1280.21 43.7734 1280.04 43.6042 1279.82 43.4844C1279.6 43.3646 1279.33 43.3047 1278.99 43.3047C1278.68 43.3047 1278.42 43.3568 1278.2 43.4609C1277.97 43.5651 1277.8 43.7057 1277.67 43.8828C1277.55 44.0599 1277.48 44.2604 1277.48 44.4844H1275.61C1275.61 44.151 1275.69 43.8281 1275.85 43.5156C1276.01 43.2031 1276.25 42.9245 1276.55 42.6797C1276.86 42.4349 1277.23 42.2422 1277.66 42.1016C1278.08 41.9609 1278.56 41.8906 1279.09 41.8906C1279.73 41.8906 1280.29 41.9974 1280.78 42.2109C1281.28 42.4245 1281.66 42.7474 1281.95 43.1797C1282.23 43.6068 1282.38 44.1432 1282.38 44.7891V48.5469C1282.38 48.9323 1282.4 49.2786 1282.45 49.5859C1282.51 49.888 1282.59 50.151 1282.7 50.375V50.5H1280.77C1280.68 50.2969 1280.61 50.0391 1280.55 49.7266C1280.51 49.4089 1280.48 49.1016 1280.48 48.8047ZM1280.76 45.3594L1280.77 46.5234H1279.42C1279.07 46.5234 1278.77 46.5573 1278.5 46.625C1278.23 46.6875 1278.01 46.7812 1277.84 46.9062C1277.66 47.0312 1277.53 47.1823 1277.44 47.3594C1277.35 47.5365 1277.3 47.737 1277.3 47.9609C1277.3 48.1849 1277.36 48.3906 1277.46 48.5781C1277.57 48.7604 1277.72 48.9036 1277.91 49.0078C1278.12 49.112 1278.36 49.1641 1278.65 49.1641C1279.03 49.1641 1279.37 49.0859 1279.66 48.9297C1279.95 48.7682 1280.18 48.5729 1280.34 48.3438C1280.51 48.1094 1280.6 47.888 1280.61 47.6797L1281.22 48.5156C1281.16 48.7292 1281.05 48.9583 1280.9 49.2031C1280.75 49.4479 1280.55 49.6823 1280.3 49.9062C1280.07 50.125 1279.78 50.3047 1279.44 50.4453C1279.1 50.5859 1278.72 50.6562 1278.28 50.6562C1277.73 50.6562 1277.24 50.5469 1276.8 50.3281C1276.37 50.1042 1276.03 49.8047 1275.79 49.4297C1275.54 49.0495 1275.42 48.6198 1275.42 48.1406C1275.42 47.6927 1275.51 47.2969 1275.67 46.9531C1275.84 46.6042 1276.09 46.3125 1276.42 46.0781C1276.76 45.8438 1277.16 45.6667 1277.64 45.5469C1278.12 45.4219 1278.67 45.3594 1279.28 45.3594H1280.76ZM1293.48 48.75V38.5H1295.38V50.5H1293.66L1293.48 48.75ZM1287.98 46.3672V46.2031C1287.98 45.5625 1288.06 44.9792 1288.21 44.4531C1288.36 43.9219 1288.58 43.4661 1288.87 43.0859C1289.15 42.7005 1289.5 42.4062 1289.91 42.2031C1290.33 41.9948 1290.79 41.8906 1291.3 41.8906C1291.82 41.8906 1292.26 41.9896 1292.65 42.1875C1293.03 42.3854 1293.36 42.6693 1293.63 43.0391C1293.9 43.4036 1294.12 43.8411 1294.28 44.3516C1294.44 44.8568 1294.56 45.4193 1294.62 46.0391V46.5625C1294.56 47.1667 1294.44 47.7188 1294.28 48.2188C1294.12 48.7188 1293.9 49.151 1293.63 49.5156C1293.36 49.8802 1293.03 50.1615 1292.64 50.3594C1292.26 50.5573 1291.8 50.6562 1291.29 50.6562C1290.78 50.6562 1290.32 50.5495 1289.91 50.3359C1289.5 50.1224 1289.15 49.8229 1288.87 49.4375C1288.58 49.0521 1288.36 48.599 1288.21 48.0781C1288.06 47.5521 1287.98 46.9818 1287.98 46.3672ZM1289.87 46.2031V46.3672C1289.87 46.7526 1289.9 47.112 1289.97 47.4453C1290.04 47.7786 1290.15 48.0729 1290.3 48.3281C1290.46 48.5781 1290.65 48.776 1290.89 48.9219C1291.14 49.0625 1291.43 49.1328 1291.77 49.1328C1292.19 49.1328 1292.54 49.0391 1292.82 48.8516C1293.1 48.6641 1293.31 48.4115 1293.47 48.0938C1293.63 47.7708 1293.74 47.4115 1293.8 47.0156V45.6016C1293.77 45.2943 1293.7 45.0078 1293.6 44.7422C1293.51 44.4766 1293.38 44.2448 1293.22 44.0469C1293.06 43.8438 1292.86 43.6875 1292.62 43.5781C1292.38 43.4635 1292.1 43.4062 1291.78 43.4062C1291.44 43.4062 1291.15 43.4792 1290.91 43.625C1290.67 43.7708 1290.47 43.9714 1290.31 44.2266C1290.16 44.4818 1290.05 44.7786 1289.98 45.1172C1289.9 45.4557 1289.87 45.8177 1289.87 46.2031ZM1301.07 50.6562C1300.45 50.6562 1299.88 50.5547 1299.38 50.3516C1298.88 50.1432 1298.45 49.8542 1298.09 49.4844C1297.74 49.1146 1297.48 48.6797 1297.29 48.1797C1297.1 47.6797 1297.01 47.1406 1297.01 46.5625V46.25C1297.01 45.5885 1297.1 44.9896 1297.3 44.4531C1297.49 43.9167 1297.76 43.4583 1298.1 43.0781C1298.45 42.6927 1298.85 42.3984 1299.32 42.1953C1299.79 41.9922 1300.3 41.8906 1300.84 41.8906C1301.45 41.8906 1301.98 41.9922 1302.43 42.1953C1302.88 42.3984 1303.26 42.6849 1303.55 43.0547C1303.86 43.4193 1304.08 43.8542 1304.23 44.3594C1304.38 44.8646 1304.45 45.4219 1304.45 46.0312V46.8359H1297.92V45.4844H1302.59V45.3359C1302.58 44.9974 1302.52 44.6797 1302.39 44.3828C1302.27 44.0859 1302.09 43.8464 1301.84 43.6641C1301.59 43.4818 1301.25 43.3906 1300.84 43.3906C1300.52 43.3906 1300.24 43.4583 1300 43.5938C1299.76 43.724 1299.56 43.9141 1299.4 44.1641C1299.24 44.4141 1299.11 44.7161 1299.02 45.0703C1298.94 45.4193 1298.9 45.8125 1298.9 46.25V46.5625C1298.9 46.9323 1298.95 47.276 1299.05 47.5938C1299.15 47.9062 1299.3 48.1797 1299.5 48.4141C1299.7 48.6484 1299.94 48.8333 1300.22 48.9688C1300.5 49.099 1300.82 49.1641 1301.18 49.1641C1301.63 49.1641 1302.04 49.0729 1302.39 48.8906C1302.74 48.7083 1303.05 48.4505 1303.31 48.1172L1304.3 49.0781C1304.12 49.3438 1303.89 49.599 1303.59 49.8438C1303.3 50.0833 1302.95 50.2786 1302.52 50.4297C1302.11 50.5807 1301.62 50.6562 1301.07 50.6562ZM1307.8 43.7656V50.5H1305.92V42.0469H1307.7L1307.8 43.7656ZM1307.5 45.9609L1306.86 45.9531C1306.86 45.3698 1306.93 44.8307 1307.08 44.3359C1307.22 43.8411 1307.44 43.4115 1307.72 43.0469C1308 42.6771 1308.35 42.3932 1308.77 42.1953C1309.19 41.9922 1309.67 41.8906 1310.23 41.8906C1310.61 41.8906 1310.96 41.9479 1311.28 42.0625C1311.6 42.1719 1311.88 42.3464 1312.12 42.5859C1312.36 42.8255 1312.54 43.1328 1312.66 43.5078C1312.79 43.8828 1312.86 44.3359 1312.86 44.8672V50.5H1310.98V45.0312C1310.98 44.6198 1310.91 44.2969 1310.79 44.0625C1310.67 43.8281 1310.49 43.6615 1310.27 43.5625C1310.04 43.4583 1309.77 43.4062 1309.46 43.4062C1309.11 43.4062 1308.8 43.474 1308.55 43.6094C1308.31 43.7448 1308.11 43.9297 1307.95 44.1641C1307.8 44.3984 1307.68 44.6693 1307.61 44.9766C1307.54 45.2839 1307.5 45.612 1307.5 45.9609ZM1312.74 45.4609L1311.86 45.6562C1311.86 45.1458 1311.93 44.6641 1312.07 44.2109C1312.22 43.7526 1312.43 43.3516 1312.7 43.0078C1312.98 42.6589 1313.33 42.3854 1313.74 42.1875C1314.15 41.9896 1314.62 41.8906 1315.16 41.8906C1315.59 41.8906 1315.97 41.9505 1316.31 42.0703C1316.66 42.1849 1316.95 42.3672 1317.19 42.6172C1317.43 42.8672 1317.61 43.1927 1317.73 43.5938C1317.86 43.9896 1317.92 44.4688 1317.92 45.0312V50.5H1316.03V45.0234C1316.03 44.5964 1315.97 44.2656 1315.84 44.0312C1315.72 43.7969 1315.55 43.6354 1315.33 43.5469C1315.1 43.4531 1314.84 43.4062 1314.52 43.4062C1314.23 43.4062 1313.97 43.4609 1313.75 43.5703C1313.53 43.6745 1313.35 43.8229 1313.2 44.0156C1313.04 44.2031 1312.93 44.4193 1312.85 44.6641C1312.78 44.9089 1312.74 45.1745 1312.74 45.4609ZM1319.5 46.3672V46.1875C1319.5 45.5781 1319.59 45.013 1319.77 44.4922C1319.94 43.9661 1320.2 43.5104 1320.53 43.125C1320.87 42.7344 1321.28 42.4323 1321.77 42.2188C1322.26 42 1322.81 41.8906 1323.42 41.8906C1324.04 41.8906 1324.59 42 1325.08 42.2188C1325.57 42.4323 1325.98 42.7344 1326.32 43.125C1326.66 43.5104 1326.92 43.9661 1327.09 44.4922C1327.27 45.013 1327.36 45.5781 1327.36 46.1875V46.3672C1327.36 46.9766 1327.27 47.5417 1327.09 48.0625C1326.92 48.5833 1326.66 49.0391 1326.32 49.4297C1325.98 49.8151 1325.57 50.1172 1325.09 50.3359C1324.6 50.5495 1324.05 50.6562 1323.44 50.6562C1322.82 50.6562 1322.26 50.5495 1321.77 50.3359C1321.29 50.1172 1320.88 49.8151 1320.54 49.4297C1320.2 49.0391 1319.94 48.5833 1319.77 48.0625C1319.59 47.5417 1319.5 46.9766 1319.5 46.3672ZM1321.38 46.1875V46.3672C1321.38 46.7474 1321.42 47.1068 1321.5 47.4453C1321.58 47.7839 1321.7 48.0807 1321.87 48.3359C1322.03 48.5911 1322.25 48.7917 1322.51 48.9375C1322.77 49.0833 1323.08 49.1562 1323.44 49.1562C1323.79 49.1562 1324.09 49.0833 1324.34 48.9375C1324.6 48.7917 1324.82 48.5911 1324.98 48.3359C1325.15 48.0807 1325.27 47.7839 1325.35 47.4453C1325.43 47.1068 1325.48 46.7474 1325.48 46.3672V46.1875C1325.48 45.8125 1325.43 45.4583 1325.35 45.125C1325.27 44.7865 1325.15 44.487 1324.98 44.2266C1324.81 43.9661 1324.6 43.763 1324.34 43.6172C1324.08 43.4661 1323.78 43.3906 1323.42 43.3906C1323.07 43.3906 1322.76 43.4661 1322.5 43.6172C1322.24 43.763 1322.03 43.9661 1321.87 44.2266C1321.7 44.487 1321.58 44.7865 1321.5 45.125C1321.42 45.4583 1321.38 45.8125 1321.38 46.1875Z" fill="white"/>
<path d="M1135.28 48.9453V50.5H1129.57V48.9453H1135.28ZM1130.12 39.125V50.5H1128.16V39.125H1130.12ZM1136.25 46.3672V46.1875C1136.25 45.5781 1136.34 45.013 1136.52 44.4922C1136.69 43.9661 1136.95 43.5104 1137.28 43.125C1137.62 42.7344 1138.03 42.4323 1138.52 42.2188C1139.01 42 1139.56 41.8906 1140.17 41.8906C1140.79 41.8906 1141.34 42 1141.83 42.2188C1142.32 42.4323 1142.73 42.7344 1143.07 43.125C1143.41 43.5104 1143.67 43.9661 1143.84 44.4922C1144.02 45.013 1144.11 45.5781 1144.11 46.1875V46.3672C1144.11 46.9766 1144.02 47.5417 1143.84 48.0625C1143.67 48.5833 1143.41 49.0391 1143.07 49.4297C1142.73 49.8151 1142.32 50.1172 1141.84 50.3359C1141.35 50.5495 1140.8 50.6562 1140.19 50.6562C1139.57 50.6562 1139.01 50.5495 1138.52 50.3359C1138.04 50.1172 1137.63 49.8151 1137.29 49.4297C1136.95 49.0391 1136.69 48.5833 1136.52 48.0625C1136.34 47.5417 1136.25 46.9766 1136.25 46.3672ZM1138.13 46.1875V46.3672C1138.13 46.7474 1138.17 47.1068 1138.25 47.4453C1138.33 47.7839 1138.45 48.0807 1138.62 48.3359C1138.78 48.5911 1139 48.7917 1139.26 48.9375C1139.52 49.0833 1139.83 49.1562 1140.19 49.1562C1140.54 49.1562 1140.84 49.0833 1141.09 48.9375C1141.35 48.7917 1141.57 48.5911 1141.73 48.3359C1141.9 48.0807 1142.02 47.7839 1142.1 47.4453C1142.18 47.1068 1142.23 46.7474 1142.23 46.3672V46.1875C1142.23 45.8125 1142.18 45.4583 1142.1 45.125C1142.02 44.7865 1141.9 44.487 1141.73 44.2266C1141.56 43.9661 1141.35 43.763 1141.09 43.6172C1140.83 43.4661 1140.53 43.3906 1140.17 43.3906C1139.82 43.3906 1139.51 43.4661 1139.25 43.6172C1138.99 43.763 1138.78 43.9661 1138.62 44.2266C1138.45 44.487 1138.33 44.7865 1138.25 45.125C1138.17 45.4583 1138.13 45.8125 1138.13 46.1875ZM1151.1 42.0469H1152.81V50.2656C1152.81 51.026 1152.65 51.6719 1152.33 52.2031C1152.01 52.7344 1151.55 53.138 1150.98 53.4141C1150.4 53.6953 1149.73 53.8359 1148.97 53.8359C1148.65 53.8359 1148.29 53.7891 1147.89 53.6953C1147.5 53.6016 1147.12 53.4505 1146.75 53.2422C1146.39 53.0391 1146.08 52.7708 1145.84 52.4375L1146.72 51.3281C1147.02 51.6875 1147.35 51.9505 1147.72 52.1172C1148.08 52.2839 1148.47 52.3672 1148.87 52.3672C1149.3 52.3672 1149.67 52.2865 1149.97 52.125C1150.28 51.9688 1150.51 51.737 1150.68 51.4297C1150.85 51.1224 1150.93 50.7474 1150.93 50.3047V43.9609L1151.1 42.0469ZM1145.36 46.3672V46.2031C1145.36 45.5625 1145.44 44.9792 1145.59 44.4531C1145.75 43.9219 1145.97 43.4661 1146.27 43.0859C1146.56 42.7005 1146.91 42.4062 1147.33 42.2031C1147.74 41.9948 1148.22 41.8906 1148.74 41.8906C1149.29 41.8906 1149.76 41.9896 1150.14 42.1875C1150.53 42.3854 1150.86 42.6693 1151.12 43.0391C1151.38 43.4036 1151.58 43.8411 1151.73 44.3516C1151.88 44.8568 1151.99 45.4193 1152.06 46.0391V46.5625C1151.99 47.1667 1151.88 47.7188 1151.72 48.2188C1151.56 48.7188 1151.34 49.151 1151.08 49.5156C1150.81 49.8802 1150.48 50.1615 1150.09 50.3594C1149.71 50.5573 1149.25 50.6562 1148.73 50.6562C1148.21 50.6562 1147.74 50.5495 1147.33 50.3359C1146.92 50.1224 1146.56 49.8229 1146.27 49.4375C1145.97 49.0521 1145.75 48.599 1145.59 48.0781C1145.44 47.5521 1145.36 46.9818 1145.36 46.3672ZM1147.24 46.2031V46.3672C1147.24 46.7526 1147.28 47.112 1147.35 47.4453C1147.43 47.7786 1147.55 48.0729 1147.7 48.3281C1147.86 48.5781 1148.07 48.776 1148.31 48.9219C1148.56 49.0625 1148.86 49.1328 1149.2 49.1328C1149.64 49.1328 1150 49.0391 1150.28 48.8516C1150.57 48.6641 1150.79 48.4115 1150.94 48.0938C1151.09 47.7708 1151.2 47.4115 1151.27 47.0156V45.6016C1151.23 45.2943 1151.17 45.0078 1151.07 44.7422C1150.98 44.4766 1150.85 44.2448 1150.69 44.0469C1150.53 43.8438 1150.32 43.6875 1150.08 43.5781C1149.83 43.4635 1149.54 43.4062 1149.21 43.4062C1148.87 43.4062 1148.58 43.4792 1148.33 43.625C1148.08 43.7708 1147.87 43.9714 1147.71 44.2266C1147.55 44.4818 1147.44 44.7786 1147.36 45.1172C1147.28 45.4557 1147.24 45.8177 1147.24 46.2031ZM1156.78 42.0469V50.5H1154.89V42.0469H1156.78ZM1154.77 39.8281C1154.77 39.5417 1154.86 39.3047 1155.05 39.1172C1155.24 38.9245 1155.51 38.8281 1155.84 38.8281C1156.18 38.8281 1156.44 38.9245 1156.63 39.1172C1156.83 39.3047 1156.92 39.5417 1156.92 39.8281C1156.92 40.1094 1156.83 40.3438 1156.63 40.5312C1156.44 40.7188 1156.18 40.8125 1155.84 40.8125C1155.51 40.8125 1155.24 40.7188 1155.05 40.5312C1154.86 40.3438 1154.77 40.1094 1154.77 39.8281ZM1160.71 43.8516V50.5H1158.83V42.0469H1160.6L1160.71 43.8516ZM1160.38 45.9609L1159.77 45.9531C1159.77 45.3542 1159.85 44.8047 1160.02 44.3047C1160.18 43.8047 1160.41 43.375 1160.7 43.0156C1161 42.6562 1161.35 42.3802 1161.77 42.1875C1162.18 41.9896 1162.64 41.8906 1163.14 41.8906C1163.55 41.8906 1163.91 41.9479 1164.24 42.0625C1164.58 42.1719 1164.86 42.3516 1165.09 42.6016C1165.33 42.8516 1165.52 43.1771 1165.64 43.5781C1165.77 43.974 1165.83 44.4609 1165.83 45.0391V50.5H1163.94V45.0312C1163.94 44.625 1163.88 44.3047 1163.76 44.0703C1163.64 43.8307 1163.47 43.6615 1163.25 43.5625C1163.03 43.4583 1162.76 43.4062 1162.43 43.4062C1162.11 43.4062 1161.82 43.474 1161.56 43.6094C1161.31 43.7448 1161.09 43.9297 1160.91 44.1641C1160.74 44.3984 1160.61 44.6693 1160.52 44.9766C1160.42 45.2839 1160.38 45.612 1160.38 45.9609Z" fill="#4532FC"/>
<defs>
<clipPath id="clip0_1_704">
<rect width="245" height="41" fill="white" transform="translate(82 23)"/>
</clipPath>
</defs>
</svg>
