<svg width="48" height="48" viewBox="0 0 48 48" fill="none" xmlns="http://www.w3.org/2000/svg">
<path d="M23.6667 0.375C18.9941 0.375 14.4265 1.76058 10.5414 4.35653C6.65624 6.95248 3.62816 10.6422 1.84004 14.9591C0.0519233 19.276 -0.41593 24.0262 0.495645 28.609C1.40722 33.1918 3.65728 37.4014 6.9613 40.7054C10.2653 44.0094 14.4749 46.2595 19.0577 47.1711C23.6405 48.0826 28.3907 47.6148 32.7076 45.8267C37.0245 44.0385 40.7142 41.0105 43.3102 37.1253C45.9061 33.2402 47.2917 28.6726 47.2917 24C47.2917 17.7343 44.8026 11.7251 40.3721 7.2946C35.9415 2.86406 29.9324 0.375 23.6667 0.375V0.375ZM19.4311 4.20563C19.7011 4.72875 19.9711 5.21813 20.2579 5.72438C21.5404 8.01938 22.6711 9.99375 21.9454 12.6431C21.6586 13.7906 20.2579 14.3306 18.3342 15.0056C16.9542 15.3316 15.6992 16.0529 14.7229 17.0813C14.0622 18.0625 13.6507 19.1902 13.5243 20.3664C13.3978 21.5426 13.5602 22.732 13.9973 23.8313C14.318 25.08 14.5036 25.8563 14.1661 26.3625C13.8286 26.8688 13.9129 26.6663 13.0186 26.7844C12.0125 26.8475 11.0339 27.1385 10.1568 27.6355C9.27978 28.1325 8.52722 28.8225 7.95607 29.6531C6.98235 31.0662 6.4374 32.7303 6.3867 34.4456C4.45211 31.3044 3.4242 27.6892 3.4167 24C3.41846 19.3663 5.0093 14.8734 7.92374 11.2711C10.8382 7.66871 14.8999 5.17483 19.4311 4.20563V4.20563ZM10.0148 38.9175C9.74482 37.0106 9.32295 33.5681 10.6729 31.7625C10.981 31.2824 11.4056 30.8882 11.9073 30.6167C12.409 30.3452 12.9713 30.2053 13.5417 30.21C14.2121 30.1694 14.8645 29.9766 15.4493 29.6462C16.0341 29.3158 16.5359 28.8565 16.9167 28.3031C17.3471 27.5028 17.5946 26.6169 17.6413 25.7094C17.688 24.8019 17.5327 23.8953 17.1867 23.055C16.7479 21.3675 16.5117 20.2369 17.3554 19.1063C17.9982 18.7051 18.698 18.4036 19.4311 18.2119C21.5742 17.4863 24.4936 16.5244 25.2361 13.4194C26.1811 9.4875 24.5611 6.66938 23.1267 4.05375L23.0423 3.75H23.6667C27.4862 3.75127 31.2263 4.83996 34.4498 6.88875C32.6752 9.63548 30.5413 12.1326 28.1048 14.3138C25.7761 16.4231 27.4804 18.8531 28.6111 20.4563C29.2279 21.1174 29.7055 21.8958 30.0157 22.7452C30.3259 23.5945 30.4622 24.4976 30.4167 25.4006C30.295 25.8711 30.2962 26.365 30.4203 26.8348C30.5444 27.3047 30.7872 27.7348 31.1254 28.0838C31.6367 28.4287 32.2282 28.6363 32.8429 28.6865C33.4576 28.7368 34.0749 28.628 34.6354 28.3706C35.0392 28.2557 35.451 28.1711 35.8673 28.1175C36.0529 28.7588 35.6986 29.2819 34.1798 30.6825C32.6611 32.0831 30.6529 33.9731 31.2604 36.9938C31.4757 37.8625 31.8728 38.6756 32.4255 39.3796C32.9782 40.0835 33.6739 40.6622 34.4667 41.0775C30.7241 43.4667 26.2961 44.5505 21.8731 44.1598C17.4501 43.769 13.2806 41.9258 10.0148 38.9175V38.9175ZM37.3523 38.9175L36.6942 38.4956C35.5129 37.7869 34.7873 37.2806 34.6017 36.3525C34.4161 35.4244 35.0236 34.5806 36.5255 33.18C38.0273 31.7794 40.1198 29.805 39.0061 26.8181C37.9767 24.1013 35.1417 24.7931 33.8592 25.1306C33.8193 22.7158 32.9426 20.3897 31.3786 18.5494C30.956 18.0425 30.6145 17.4732 30.3661 16.8619C32.9542 14.5446 35.2239 11.8947 37.1161 8.98125C39.226 10.8579 40.9182 13.1567 42.0833 15.7288C43.2483 18.301 43.8602 21.0891 43.8793 23.9128C43.8984 26.7364 43.3243 29.5326 42.1941 32.1203C41.0639 34.7079 39.4029 37.0294 37.3186 38.9344L37.3523 38.9175Z" fill="#E53FB6"/>
</svg>
